SourceSans3-ExtraLightItalic.ufo
<glyph name="parenleft" format="2">
	<unicode hex="0028"/>
	<advance width="260"/>
	<outline>
		<contour>
			<point x="128" y="-174" type="curve"/>
			<point x="148" y="-168" type="line"/>
			<point x="116" y="-88"/>
			<point x="100" y="28"/>
			<point x="100" y="128" type="curve" smooth="yes"/>
			<point x="100" y="360"/>
			<point x="180" y="584"/>
			<point x="322" y="716" type="curve"/>
			<point x="304" y="730" type="line"/>
			<point x="160" y="594"/>
			<point x="72" y="378"/>
			<point x="72" y="134" type="curve" smooth="yes"/>
			<point x="72" y="24"/>
			<point x="94" y="-96"/>
		</contour>
	</outline>
</glyph>
<glyph name="less" format="2">
	<unicode hex="003C"/>
	<advance width="456"/>
	<outline>
		<contour>
			<point x="436" y="156" type="line"/>
			<point x="436" y="184" type="line"/>
			<point x="206" y="278" type="line"/>
			<point x="84" y="328" type="line"/>
			<point x="84" y="332" type="line"/>
			<point x="206" y="382" type="line"/>
			<point x="436" y="476" type="line"/>
			<point x="436" y="504" type="line"/>
			<point x="46" y="344" type="line"/>
			<point x="46" y="316" type="line"/>
		</contour>
	</outline>
</glyph>
<glyph name="R" format="2">
	<unicode hex="0052"/>
	<advance width="522"/>
	<outline>
		<contour>
			<point x="40" y="0" type="line"/>
			<point x="70" y="0" type="line"/>
			<point x="132" y="310" type="line"/>
			<point x="274" y="310" type="line" smooth="yes"/>
			<point x="416" y="310"/>
			<point x="522" y="390"/>
			<point x="522" y="518" type="curve" smooth="yes"/>
			<point x="522" y="618"/>
			<point x="450" y="660"/>
			<point x="332" y="660" type="curve" smooth="yes"/>
			<point x="172" y="660" type="line"/>
		</contour>
		<contour>
			<point x="138" y="336" type="line"/>
			<point x="196" y="634" type="line"/>
			<point x="314" y="634" type="line" smooth="yes"/>
			<point x="432" y="634"/>
			<point x="492" y="602"/>
			<point x="492" y="516" type="curve" smooth="yes"/>
			<point x="492" y="404"/>
			<point x="408" y="336"/>
			<point x="260" y="336" type="curve" smooth="yes"/>
		</contour>
		<contour>
			<point x="400" y="0" type="line"/>
			<point x="434" y="0" type="line"/>
			<point x="300" y="324" type="line"/>
			<point x="272" y="312" type="line"/>
		</contour>
	</outline>
	<anchor name="aboveUC" x="340" y="682"/>
	<anchor name="belowLC" x="250" y="-22"/>
</glyph>
<glyph name="T" format="2">
	<unicode hex="0054"/>
	<advance width="492"/>
	<outline>
		<contour>
			<point x="180" y="0" type="line"/>
			<point x="210" y="0" type="line"/>
			<point x="336" y="634" type="line"/>
			<point x="542" y="634" type="line"/>
			<point x="548" y="660" type="line"/>
			<point x="106" y="660" type="line"/>
			<point x="100" y="634" type="line"/>
			<point x="306" y="634" type="line"/>
		</contour>
	</outline>
	<anchor name="aboverightUC" x="520" y="682"/>
	<anchor name="aboveUC" x="330" y="682"/>
	<anchor name="baseLC" x="190" y="0"/>
	<anchor name="belowLC" x="190" y="-22"/>
</glyph>
<glyph name="V" format="2">
	<unicode hex="0056"/>
	<advance width="450"/>
	<outline>
		<contour>
			<point x="146" y="0" type="line"/>
			<point x="180" y="0" type="line"/>
			<point x="528" y="660" type="line"/>
			<point x="498" y="660" type="line"/>
			<point x="288" y="260" type="line" smooth="yes"/>
			<point x="250" y="190"/>
			<point x="210" y="110"/>
			<point x="174" y="38" type="curve"/>
			<point x="170" y="38" type="line"/>
			<point x="164" y="112"/>
			<point x="156" y="188"/>
			<point x="148" y="260" type="curve" smooth="yes"/>
			<point x="112" y="660" type="line"/>
			<point x="84" y="660" type="line"/>
		</contour>
	</outline>
	<anchor name="aboveUC" x="300" y="682"/>
	<anchor name="belowLC" x="160" y="-22"/>
</glyph>
<glyph name="W" format="2">
	<unicode hex="0057"/>
	<advance width="726"/>
	<outline>
		<contour>
			<point x="110" y="0" type="line"/>
			<point x="148" y="0" type="line"/>
			<point x="368" y="472" type="line" smooth="yes"/>
			<point x="392" y="526"/>
			<point x="416" y="574"/>
			<point x="436" y="628" type="curve"/>
			<point x="440" y="628" type="line"/>
			<point x="440" y="574"/>
			<point x="442" y="526"/>
			<point x="442" y="472" type="curve" smooth="yes"/>
			<point x="458" y="0" type="line"/>
			<point x="496" y="0" type="line"/>
			<point x="780" y="660" type="line"/>
			<point x="748" y="660" type="line"/>
			<point x="580" y="260" type="line" smooth="yes"/>
			<point x="548" y="188"/>
			<point x="518" y="116"/>
			<point x="488" y="40" type="curve"/>
			<point x="484" y="40" type="line"/>
			<point x="482" y="116"/>
			<point x="480" y="188"/>
			<point x="476" y="260" type="curve" smooth="yes"/>
			<point x="462" y="660" type="line"/>
			<point x="428" y="660" type="line"/>
			<point x="240" y="260" type="line" smooth="yes"/>
			<point x="208" y="188"/>
			<point x="174" y="116"/>
			<point x="140" y="40" type="curve"/>
			<point x="136" y="40" type="line"/>
			<point x="138" y="116"/>
			<point x="136" y="188"/>
			<point x="138" y="260" type="curve" smooth="yes"/>
			<point x="138" y="660" type="line"/>
			<point x="108" y="660" type="line"/>
		</contour>
	</outline>
	<anchor name="aboverightUC" x="760" y="682"/>
	<anchor name="aboveUC" x="450" y="682"/>
	<anchor name="belowLC" x="310" y="-22"/>
</glyph>
<glyph name="f" format="2">
	<unicode hex="0066"/>
	<advance width="246"/>
	<outline>
		<contour>
			<point x="48" y="0" type="line"/>
			<point x="76" y="0" type="line"/>
			<point x="166" y="452" type="line"/>
			<point x="274" y="452" type="line"/>
			<point x="280" y="478" type="line"/>
			<point x="172" y="478" type="line"/>
			<point x="196" y="598" type="line" smooth="yes"/>
			<point x="208" y="656"/>
			<point x="240" y="708"/>
			<point x="290" y="708" type="curve" smooth="yes"/>
			<point x="318" y="708"/>
			<point x="334" y="702"/>
			<point x="350" y="692" type="curve"/>
			<point x="362" y="712" type="line"/>
			<point x="346" y="724"/>
			<point x="324" y="734"/>
			<point x="292" y="734" type="curve" smooth="yes"/>
			<point x="236" y="734"/>
			<point x="188" y="692"/>
			<point x="168" y="598" type="curve" smooth="yes"/>
			<point x="144" y="478" type="line"/>
			<point x="76" y="474" type="line"/>
			<point x="70" y="452" type="line"/>
			<point x="138" y="452" type="line"/>
		</contour>
	</outline>
	<anchor name="aboveUC" x="280" y="732"/>
	<anchor name="belowLC" x="60" y="-22"/>
	<anchor name="center" x="120" y="240"/>
</glyph>
<glyph name="k" format="2">
	<unicode hex="006B"/>
	<advance width="436"/>
	<outline>
		<contour>
			<point x="44" y="0" type="line"/>
			<point x="72" y="0" type="line"/>
			<point x="98" y="126" type="line"/>
			<point x="236" y="266" type="line"/>
			<point x="344" y="0" type="line"/>
			<point x="374" y="0" type="line"/>
			<point x="258" y="286" type="line"/>
			<point x="444" y="478" type="line"/>
			<point x="408" y="478" type="line"/>
			<point x="110" y="176" type="line"/>
			<point x="108" y="176" type="line"/>
			<point x="216" y="722" type="line"/>
			<point x="188" y="722" type="line"/>
		</contour>
	</outline>
	<anchor name="aboverightLC" x="480" y="502"/>
	<anchor name="aboveUC" x="350" y="732"/>
	<anchor name="belowLC" x="220" y="-22"/>
</glyph>
<glyph name="s" format="2">
	<unicode hex="0073"/>
	<advance width="384"/>
	<outline>
		<contour>
			<point x="158" y="-12" type="curve" smooth="yes"/>
			<point x="248" y="-12"/>
			<point x="320" y="42"/>
			<point x="320" y="128" type="curve" smooth="yes"/>
			<point x="320" y="176"/>
			<point x="300" y="210"/>
			<point x="198" y="264" type="curve" smooth="yes"/>
			<point x="142" y="294"/>
			<point x="108" y="324"/>
			<point x="108" y="368" type="curve" smooth="yes"/>
			<point x="108" y="418"/>
			<point x="154" y="464"/>
			<point x="216" y="464" type="curve" smooth="yes"/>
			<point x="266" y="464"/>
			<point x="306" y="446"/>
			<point x="334" y="414" type="curve"/>
			<point x="352" y="430" type="line"/>
			<point x="318" y="470"/>
			<point x="272" y="490"/>
			<point x="218" y="490" type="curve" smooth="yes"/>
			<point x="144" y="490"/>
			<point x="80" y="438"/>
			<point x="80" y="362" type="curve" smooth="yes"/>
			<point x="80" y="310"/>
			<point x="120" y="274"/>
			<point x="188" y="236" type="curve" smooth="yes"/>
			<point x="276" y="186"/>
			<point x="292" y="164"/>
			<point x="292" y="122" type="curve" smooth="yes"/>
			<point x="292" y="60"/>
			<point x="232" y="14"/>
			<point x="162" y="14" type="curve" smooth="yes"/>
			<point x="96" y="14"/>
			<point x="46" y="46"/>
			<point x="20" y="88" type="curve"/>
			<point x="0" y="76" type="line"/>
			<point x="26" y="26"/>
			<point x="88" y="-12"/>
		</contour>
	</outline>
	<anchor name="aboveLC" x="250" y="502"/>
	<anchor name="baseLC" x="160" y="0"/>
	<anchor name="belowLC" x="160" y="-22"/>
	<anchor name="center" x="200" y="230"/>
</glyph>
<glyph name="y" format="2">
	<unicode hex="0079"/>
	<advance width="408"/>
	<outline>
		<contour>
			<point x="-40" y="-222" type="curve" smooth="yes"/>
			<point x="36" y="-222"/>
			<point x="90" y="-156"/>
			<point x="138" y="-68" type="curve" smooth="yes"/>
			<point x="438" y="478" type="line"/>
			<point x="408" y="478" type="line"/>
			<point x="238" y="166" type="line"/>
			<point x="212" y="120"/>
			<point x="186" y="72"/>
			<point x="162" y="26" type="curve"/>
			<point x="158" y="26" type="line"/>
			<point x="150" y="70"/>
			<point x="144" y="120"/>
			<point x="136" y="166" type="curve" smooth="yes"/>
			<point x="86" y="478" type="line"/>
			<point x="58" y="478" type="line"/>
			<point x="138" y="-10" type="line"/>
			<point x="116" y="-54" type="line" smooth="yes"/>
			<point x="73" y="-140"/>
			<point x="22" y="-196"/>
			<point x="-38" y="-196" type="curve" smooth="yes"/>
			<point x="-52" y="-196"/>
			<point x="-64" y="-194"/>
			<point x="-74" y="-190" type="curve"/>
			<point x="-84" y="-212" type="line"/>
			<point x="-70" y="-220"/>
			<point x="-54" y="-222"/>
		</contour>
	</outline>
	<anchor name="aboveLC" x="250" y="502"/>
	<anchor name="aboverightLC" x="440" y="502"/>
	<anchor name="belowLC" x="88" y="-242"/>
</glyph>
<glyph name="bar" format="2">
	<unicode hex="007C"/>
	<advance width="212"/>
	<outline>
		<contour>
			<point x="100" y="-250" type="line"/>
			<point x="126" y="-250" type="line"/>
			<point x="126" y="750" type="line"/>
			<point x="100" y="750" type="line"/>
		</contour>
	</outline>
</glyph>
<glyph name="braceright" format="2">
	<unicode hex="007D"/>
	<advance width="262"/>
	<outline>
		<contour>
			<point x="-64" y="-152" type="line"/>
			<point x="-32" y="-152" type="line" smooth="yes"/>
			<point x="39" y="-152"/>
			<point x="74" y="-126"/>
			<point x="94" y="-26" type="curve" smooth="yes"/>
			<point x="108" y="42"/>
			<point x="116" y="120"/>
			<point x="128" y="184" type="curve" smooth="yes"/>
			<point x="136" y="224"/>
			<point x="156" y="266"/>
			<point x="226" y="266" type="curve"/>
			<point x="232" y="290" type="line"/>
			<point x="172" y="290"/>
			<point x="162" y="318"/>
			<point x="162" y="342" type="curve" smooth="yes"/>
			<point x="162" y="408"/>
			<point x="222" y="564"/>
			<point x="222" y="634" type="curve" smooth="yes"/>
			<point x="222" y="686"/>
			<point x="195" y="708"/>
			<point x="138" y="708" type="curve" smooth="yes"/>
			<point x="108" y="708" type="line"/>
			<point x="102" y="686" type="line"/>
			<point x="132" y="686" type="line" smooth="yes"/>
			<point x="182" y="686"/>
			<point x="196" y="666"/>
			<point x="196" y="626" type="curve" smooth="yes"/>
			<point x="196" y="558"/>
			<point x="138" y="406"/>
			<point x="138" y="336" type="curve" smooth="yes"/>
			<point x="138" y="316"/>
			<point x="142" y="295"/>
			<point x="174" y="282" type="curve"/>
			<point x="174" y="278" type="line"/>
			<point x="132" y="266"/>
			<point x="114" y="230"/>
			<point x="102" y="172" type="curve" smooth="yes"/>
			<point x="90" y="108"/>
			<point x="82" y="38"/>
			<point x="70" y="-22" type="curve" smooth="yes"/>
			<point x="56" y="-94"/>
			<point x="34" y="-130"/>
			<point x="-28" y="-130" type="curve" smooth="yes"/>
			<point x="-60" y="-130" type="line"/>
		</contour>
	</outline>
</glyph>
<glyph name="Eth" format="2">
	<unicode hex="00D0"/>
	<advance width="592"/>
	<outline>
		<contour>
			<point x="54" y="338" type="line"/>
			<point x="326" y="338" type="line"/>
			<point x="332" y="364" type="line"/>
			<point x="134" y="364" type="line"/>
			<point x="60" y="360" type="line"/>
		</contour>
		<component base="D" xOffset="20"/>
	</outline>
	<anchor name="aboveUC" x="370" y="682"/>
	<anchor name="belowLC" x="260" y="-22"/>
</glyph>
<glyph name="eogonek" format="2">
	<unicode hex="0119"/>
	<advance width="468"/>
	<outline>
		<contour>
			<point x="256" y="-212" type="curve" smooth="yes"/>
			<point x="282" y="-212"/>
			<point x="304" y="-202"/>
			<point x="328" y="-180" type="curve"/>
			<point x="316" y="-164" type="line"/>
			<point x="294" y="-180"/>
			<point x="280" y="-186"/>
			<point x="260" y="-186" type="curve" smooth="yes"/>
			<point x="234" y="-186"/>
			<point x="216" y="-168"/>
			<point x="216" y="-138" type="curve" smooth="yes"/>
			<point x="216" y="-88"/>
			<point x="258" y="-32"/>
			<point x="364" y="40" type="curve"/>
			<point x="350" y="58" type="line"/>
			<point x="314" y="32"/>
			<point x="276" y="14"/>
			<point x="226" y="14" type="curve" smooth="yes"/>
			<point x="144" y="14"/>
			<point x="72" y="60"/>
			<point x="72" y="186" type="curve" smooth="yes"/>
			<point x="72" y="344"/>
			<point x="182" y="464"/>
			<point x="288" y="464" type="curve" smooth="yes"/>
			<point x="374" y="464"/>
			<point x="404" y="396"/>
			<point x="404" y="328" type="curve" smooth="yes"/>
			<point x="404" y="306"/>
			<point x="402" y="288"/>
			<point x="398" y="268" type="curve"/>
			<point x="74" y="268" type="line"/>
			<point x="68" y="242" type="line"/>
			<point x="420" y="242" type="line"/>
			<point x="426" y="262"/>
			<point x="432" y="290"/>
			<point x="432" y="322" type="curve" smooth="yes"/>
			<point x="432" y="420"/>
			<point x="392" y="490"/>
			<point x="290" y="490" type="curve" smooth="yes"/>
			<point x="168" y="490"/>
			<point x="44" y="364"/>
			<point x="44" y="184" type="curve" smooth="yes"/>
			<point x="44" y="56"/>
			<point x="114" y="-12"/>
			<point x="224" y="-12" type="curve" smooth="yes"/>
			<point x="240" y="-12"/>
			<point x="262" y="-8"/>
			<point x="280" y="-2" type="curve"/>
			<point x="282" y="4" type="line"/>
			<point x="222" y="-42"/>
			<point x="186" y="-90"/>
			<point x="186" y="-144" type="curve" smooth="yes"/>
			<point x="186" y="-190"/>
			<point x="216" y="-212"/>
		</contour>
	</outline>
	<anchor name="aboveLC" x="300" y="502"/>
	<anchor name="belowLC" x="170" y="-222"/>
</glyph>
<glyph name="Lslash" format="2">
	<unicode hex="0141"/>
	<advance width="442"/>
	<outline>
		<contour>
			<point x="8" y="238" type="line"/>
			<point x="110" y="278" type="line"/>
			<point x="124" y="282" type="line"/>
			<point x="354" y="374" type="line"/>
			<point x="344" y="398" type="line"/>
			<point x="130" y="312" type="line"/>
			<point x="116" y="308" type="line"/>
			<point x="-2" y="262" type="line"/>
		</contour>
		<component base="L" xOffset="10"/>
	</outline>
	<anchor name="aboveUC" x="210" y="682"/>
	<anchor name="belowLC" x="230" y="-22"/>
</glyph>
<glyph name="eng" format="2">
	<unicode hex="014B"/>
	<advance width="504"/>
	<outline>
		<contour>
			<point x="240" y="-234" type="curve" smooth="yes"/>
			<point x="302" y="-234"/>
			<point x="336" y="-182"/>
			<point x="352" y="-100" type="curve" smooth="yes"/>
			<point x="434" y="310" type="line" smooth="yes"/>
			<point x="440" y="338"/>
			<point x="442" y="350"/>
			<point x="442" y="374" type="curve" smooth="yes"/>
			<point x="442" y="442"/>
			<point x="410" y="490"/>
			<point x="328" y="490" type="curve" smooth="yes"/>
			<point x="270" y="490"/>
			<point x="216" y="452"/>
			<point x="156" y="400" type="curve"/>
			<point x="152" y="400" type="line"/>
			<point x="164" y="478" type="line"/>
			<point x="140" y="478" type="line"/>
			<point x="44" y="0" type="line"/>
			<point x="72" y="0" type="line"/>
			<point x="144" y="358" type="line"/>
			<point x="220" y="432"/>
			<point x="280" y="464"/>
			<point x="324" y="464" type="curve" smooth="yes"/>
			<point x="388" y="464"/>
			<point x="414" y="432"/>
			<point x="414" y="370" type="curve" smooth="yes"/>
			<point x="414" y="350"/>
			<point x="412" y="336"/>
			<point x="406" y="306" type="curve" smooth="yes"/>
			<point x="322" y="-104" type="line" smooth="yes"/>
			<point x="308" y="-170"/>
			<point x="282" y="-208"/>
			<point x="240" y="-208" type="curve" smooth="yes"/>
			<point x="222" y="-208"/>
			<point x="206" y="-206"/>
			<point x="192" y="-198" type="curve"/>
			<point x="182" y="-218" type="line"/>
			<point x="198" y="-230"/>
			<point x="216" y="-234"/>
		</contour>
	</outline>
	<anchor name="aboveLC" x="320" y="502"/>
	<anchor name="belowLC" x="160" y="-222"/>
</glyph>
<glyph name="Eturned" format="2">
	<unicode hex="018E"/>
	<advance width="484"/>
	<outline>
		<contour>
			<point x="-8" y="0" type="line"/>
			<point x="342" y="0" type="line"/>
			<point x="474" y="660" type="line"/>
			<point x="132" y="660" type="line"/>
			<point x="128" y="634" type="line"/>
			<point x="440" y="634" type="line"/>
			<point x="386" y="364" type="line"/>
			<point x="122" y="364" type="line"/>
			<point x="118" y="338" type="line"/>
			<point x="380" y="338" type="line"/>
			<point x="318" y="26" type="line"/>
			<point x="-4" y="26" type="line"/>
		</contour>
	</outline>
	<anchor name="aboveUC" x="300" y="682"/>
	<anchor name="belowLC" x="180" y="-22"/>
	<anchor name="ogonekUC" x="190" y="0"/>
</glyph>
<glyph name="florin" format="2">
	<unicode hex="0192"/>
	<advance width="246"/>
	<outline>
		<contour>
			<point x="-56" y="-234" type="curve" smooth="yes"/>
			<point x="6" y="-234"/>
			<point x="40" y="-182"/>
			<point x="56" y="-100" type="curve" smooth="yes"/>
			<point x="166" y="452" type="line"/>
			<point x="274" y="452" type="line"/>
			<point x="280" y="478" type="line"/>
			<point x="172" y="478" type="line"/>
			<point x="196" y="598" type="line" smooth="yes"/>
			<point x="208" y="656"/>
			<point x="240" y="708"/>
			<point x="290" y="708" type="curve" smooth="yes"/>
			<point x="318" y="708"/>
			<point x="334" y="702"/>
			<point x="350" y="692" type="curve"/>
			<point x="362" y="712" type="line"/>
			<point x="346" y="724"/>
			<point x="324" y="734"/>
			<point x="292" y="734" type="curve" smooth="yes"/>
			<point x="236" y="734"/>
			<point x="188" y="692"/>
			<point x="168" y="598" type="curve" smooth="yes"/>
			<point x="144" y="478" type="line"/>
			<point x="80" y="474" type="line"/>
			<point x="76" y="452" type="line"/>
			<point x="138" y="452" type="line"/>
			<point x="26" y="-104" type="line" smooth="yes"/>
			<point x="12" y="-166"/>
			<point x="-14" y="-208"/>
			<point x="-56" y="-208" type="curve" smooth="yes"/>
			<point x="-74" y="-208"/>
			<point x="-90" y="-206"/>
			<point x="-104" y="-198" type="curve"/>
			<point x="-114" y="-220" type="line"/>
			<point x="-98" y="-230"/>
			<point x="-80" y="-234"/>
		</contour>
	</outline>
	<anchor name="aboveUC" x="280" y="732"/>
	<anchor name="belowLC" x="-40" y="-222"/>
</glyph>
<glyph name="lbar" format="2">
	<unicode hex="019A"/>
	<advance width="266"/>
	<outline>
		<contour>
			<point x="40" y="388" type="line"/>
			<point x="272" y="388" type="line"/>
			<point x="278" y="412" type="line"/>
			<point x="148" y="412" type="line"/>
			<point x="46" y="408" type="line"/>
		</contour>
		<component base="l" xOffset="20"/>
	</outline>
	<anchor name="aboveUC" x="230" y="732"/>
	<anchor name="belowLC" x="100" y="-22"/>
</glyph>
<glyph name="Uhorn" format="2">
	<unicode hex="01AF"/>
	<advance width="600"/>
	<outline>
		<contour>
			<point x="580" y="636" type="line"/>
			<point x="644" y="647"/>
			<point x="706" y="686"/>
			<point x="706" y="764" type="curve" smooth="yes"/>
			<point x="706" y="778"/>
			<point x="704" y="791"/>
			<point x="698" y="808" type="curve"/>
			<point x="668" y="795" type="line"/>
			<point x="674" y="781"/>
			<point x="674" y="769"/>
			<point x="674" y="758" type="curve" smooth="yes"/>
			<point x="674" y="699"/>
			<point x="628" y="663"/>
			<point x="556" y="660" type="curve"/>
		</contour>
		<component base="U"/>
	</outline>
	<anchor name="aboveUC" x="380" y="682"/>
	<anchor name="belowLC" x="240" y="-22"/>
</glyph>
<glyph name="dotlessj" format="2">
	<unicode hex="0237"/>
	<advance width="214"/>
	<outline>
		<contour>
			<point x="-60" y="-234" type="curve" smooth="yes"/>
			<point x="2" y="-234"/>
			<point x="36" y="-182"/>
			<point x="52" y="-100" type="curve" smooth="yes"/>
			<point x="168" y="478" type="line"/>
			<point x="140" y="478" type="line"/>
			<point x="22" y="-104" type="line" smooth="yes"/>
			<point x="8" y="-166"/>
			<point x="-18" y="-208"/>
			<point x="-60" y="-208" type="curve" smooth="yes"/>
			<point x="-78" y="-208"/>
			<point x="-94" y="-206"/>
			<point x="-108" y="-198" type="curve"/>
			<point x="-118" y="-220" type="line"/>
			<point x="-102" y="-230"/>
			<point x="-84" y="-234"/>
		</contour>
	</outline>
	<anchor name="aboveLC" x="160" y="502"/>
	<anchor name="belowLC" x="-40" y="-222"/>
</glyph>
<glyph name="glottalstoplatin" format="2">
	<unicode hex="0242"/>
	<advance width="392"/>
	<outline>
		<contour>
			<point x="112" y="0" type="line"/>
			<point x="140" y="0" type="line"/>
			<point x="174" y="172" type="line"/>
			<point x="288" y="212"/>
			<point x="354" y="280"/>
			<point x="354" y="370" type="curve" smooth="yes"/>
			<point x="354" y="444"/>
			<point x="302" y="490"/>
			<point x="230" y="490" type="curve" smooth="yes"/>
			<point x="158" y="490"/>
			<point x="102" y="452"/>
			<point x="64" y="416" type="curve"/>
			<point x="80" y="398" type="line"/>
			<point x="116" y="432"/>
			<point x="166" y="464"/>
			<point x="226" y="464" type="curve" smooth="yes"/>
			<point x="289" y="464"/>
			<point x="326" y="426"/>
			<point x="326" y="364" type="curve" smooth="yes"/>
			<point x="326" y="294"/>
			<point x="276" y="234"/>
			<point x="150" y="188" type="curve"/>
		</contour>
	</outline>
	<anchor name="aboveLC" x="260" y="502"/>
	<anchor name="belowLC" x="130" y="-22"/>
</glyph>
<glyph name="eopenreversed" format="2">
	<unicode hex="025C"/>
	<advance width="396"/>
	<outline>
		<contour>
			<point x="156" y="-12" type="curve" smooth="yes"/>
			<point x="272" y="-12"/>
			<point x="362" y="57"/>
			<point x="362" y="152" type="curve" smooth="yes"/>
			<point x="362" y="212"/>
			<point x="314" y="242"/>
			<point x="274" y="254" type="curve"/>
			<point x="274" y="258" type="line"/>
			<point x="326" y="278"/>
			<point x="380" y="320"/>
			<point x="380" y="392" type="curve" smooth="yes"/>
			<point x="380" y="456"/>
			<point x="322" y="490"/>
			<point x="253" y="490" type="curve" smooth="yes"/>
			<point x="194" y="490"/>
			<point x="142" y="470"/>
			<point x="98" y="439" type="curve"/>
			<point x="112" y="416" type="line"/>
			<point x="158" y="448"/>
			<point x="202" y="464"/>
			<point x="250" y="464" type="curve" smooth="yes"/>
			<point x="304" y="464"/>
			<point x="352" y="440"/>
			<point x="352" y="386" type="curve" smooth="yes"/>
			<point x="352" y="324"/>
			<point x="294" y="268"/>
			<point x="180" y="268" type="curve" smooth="yes"/>
			<point x="136" y="268" type="line"/>
			<point x="130" y="242" type="line"/>
			<point x="188" y="242" type="line" smooth="yes"/>
			<point x="282" y="242"/>
			<point x="334" y="208"/>
			<point x="334" y="146" type="curve" smooth="yes"/>
			<point x="334" y="70"/>
			<point x="256" y="14"/>
			<point x="158" y="14" type="curve" smooth="yes"/>
			<point x="98" y="14"/>
			<point x="58" y="28"/>
			<point x="18" y="66" type="curve"/>
			<point x="0" y="46" type="line"/>
			<point x="43" y="6"/>
			<point x="88" y="-12"/>
		</contour>
	</outline>
	<anchor name="aboveLC" x="260" y="502"/>
	<anchor name="belowLC" x="160" y="-22"/>
</glyph>
<glyph name="lbelt" format="2">
	<unicode hex="026C"/>
	<advance width="260"/>
	<outline>
		<contour>
			<point x="128" y="342" type="curve" smooth="yes"/>
			<point x="266" y="342" type="line"/>
			<point x="272" y="368" type="line"/>
			<point x="122" y="368" type="line" smooth="yes"/>
			<point x="74" y="368"/>
			<point x="48" y="384"/>
			<point x="48" y="412" type="curve" smooth="yes"/>
			<point x="48" y="436"/>
			<point x="60" y="452"/>
			<point x="86" y="452" type="curve" smooth="yes"/>
			<point x="128" y="452"/>
			<point x="140" y="415"/>
			<point x="140" y="378" type="curve"/>
			<point x="160" y="370" type="line"/>
			<point x="160" y="406"/>
			<point x="152" y="478"/>
			<point x="84" y="478" type="curve" smooth="yes"/>
			<point x="46" y="478"/>
			<point x="22" y="450"/>
			<point x="22" y="414" type="curve" smooth="yes"/>
			<point x="22" y="372"/>
			<point x="56" y="342"/>
		</contour>
		<component base="l.a" xOffset="20"/>
	</outline>
	<anchor name="aboveUC" x="220" y="732"/>
	<anchor name="belowLC" x="80" y="-22"/>
</glyph>
<glyph name="vhook" format="2">
	<unicode hex="028B"/>
	<advance width="512"/>
	<outline>
		<contour>
			<point x="198" y="-12" type="curve" smooth="yes"/>
			<point x="332" y="-12"/>
			<point x="470" y="162"/>
			<point x="470" y="374" type="curve" smooth="yes"/>
			<point x="470" y="458"/>
			<point x="434" y="490"/>
			<point x="376" y="490" type="curve" smooth="yes"/>
			<point x="358" y="490"/>
			<point x="342" y="488"/>
			<point x="325" y="482" type="curve"/>
			<point x="329" y="456" type="line"/>
			<point x="344" y="462"/>
			<point x="355" y="464"/>
			<point x="367" y="464" type="curve" smooth="yes"/>
			<point x="414" y="464"/>
			<point x="442" y="442"/>
			<point x="442" y="368" type="curve" smooth="yes"/>
			<point x="442" y="180"/>
			<point x="314" y="14"/>
			<point x="200" y="14" type="curve" smooth="yes"/>
			<point x="136" y="14"/>
			<point x="102" y="40"/>
			<point x="102" y="132" type="curve" smooth="yes"/>
			<point x="102" y="154"/>
			<point x="106" y="174"/>
			<point x="112" y="202" type="curve" smooth="yes"/>
			<point x="168" y="478" type="line"/>
			<point x="140" y="478" type="line"/>
			<point x="84" y="202" type="line" smooth="yes"/>
			<point x="78" y="174"/>
			<point x="74" y="146"/>
			<point x="74" y="126" type="curve" smooth="yes"/>
			<point x="74" y="27"/>
			<point x="122" y="-12"/>
		</contour>
	</outline>
	<anchor name="aboveLC" x="310" y="502"/>
	<anchor name="belowLC" x="200" y="-22"/>
</glyph>
<glyph name="glottalstop" format="2">
	<unicode hex="0294"/>
	<advance width="392"/>
	<outline>
		<contour>
			<point x="110" y="0" type="line"/>
			<point x="138" y="0" type="line"/>
			<point x="200" y="312" type="line"/>
			<point x="358" y="386"/>
			<point x="430" y="492"/>
			<point x="430" y="586" type="curve" smooth="yes"/>
			<point x="430" y="678"/>
			<point x="368" y="734"/>
			<point x="276" y="734" type="curve" smooth="yes"/>
			<point x="190" y="734"/>
			<point x="122" y="688"/>
			<point x="78" y="648" type="curve"/>
			<point x="94" y="628" type="line"/>
			<point x="138" y="670"/>
			<point x="200" y="708"/>
			<point x="274" y="708" type="curve" smooth="yes"/>
			<point x="358" y="708"/>
			<point x="402" y="658"/>
			<point x="402" y="580" type="curve" smooth="yes"/>
			<point x="402" y="502"/>
			<point x="338" y="400"/>
			<point x="176" y="328" type="curve"/>
		</contour>
	</outline>
	<anchor name="aboveUC" x="280" y="732"/>
	<anchor name="belowLC" x="120" y="-22"/>
</glyph>
<glyph name="dezh" format="2">
	<unicode hex="02A4"/>
	<advance width="776"/>
	<outline>
		<contour>
			<point x="176" y="-12" type="curve" smooth="yes"/>
			<point x="240" y="-12"/>
			<point x="297" y="27"/>
			<point x="346" y="78" type="curve"/>
			<point x="350" y="78" type="line"/>
			<point x="338" y="0" type="line"/>
			<point x="362" y="0" type="line"/>
			<point x="508" y="722" type="line"/>
			<point x="480" y="722" type="line"/>
			<point x="436" y="506" type="line"/>
			<point x="416" y="410" type="line"/>
			<point x="412" y="410" type="line"/>
			<point x="386" y="457"/>
			<point x="349" y="490"/>
			<point x="296" y="490" type="curve" smooth="yes"/>
			<point x="168" y="490"/>
			<point x="46" y="340"/>
			<point x="46" y="150" type="curve" smooth="yes"/>
			<point x="46" y="45"/>
			<point x="98" y="-12"/>
		</contour>
		<contour>
			<point x="178" y="14" type="curve" smooth="yes"/>
			<point x="114" y="14"/>
			<point x="74" y="61"/>
			<point x="74" y="156" type="curve" smooth="yes"/>
			<point x="74" y="309"/>
			<point x="178" y="464"/>
			<point x="294" y="464" type="curve" smooth="yes"/>
			<point x="338" y="464"/>
			<point x="373" y="437"/>
			<point x="410" y="372" type="curve"/>
			<point x="358" y="122" type="line"/>
			<point x="299" y="56"/>
			<point x="241" y="14"/>
		</contour>
		<contour>
			<point x="506" y="-234" type="curve" smooth="yes"/>
			<point x="608" y="-234"/>
			<point x="716" y="-126"/>
			<point x="716" y="24" type="curve" smooth="yes"/>
			<point x="716" y="122"/>
			<point x="642" y="198"/>
			<point x="502" y="152" type="curve"/>
			<point x="510" y="138" type="line"/>
			<point x="790" y="460" type="line"/>
			<point x="792" y="478" type="line"/>
			<point x="440" y="478" type="line"/>
			<point x="434" y="452" type="line"/>
			<point x="748" y="452" type="line"/>
			<point x="480" y="144" type="line"/>
			<point x="493" y="122" type="line"/>
			<point x="520" y="134"/>
			<point x="541" y="142"/>
			<point x="571" y="142" type="curve" smooth="yes"/>
			<point x="649" y="142"/>
			<point x="688" y="102"/>
			<point x="688" y="18" type="curve" smooth="yes"/>
			<point x="688" y="-110"/>
			<point x="593" y="-208"/>
			<point x="508" y="-208" type="curve" smooth="yes"/>
			<point x="436" y="-208"/>
			<point x="396" y="-172"/>
			<point x="370" y="-140" type="curve"/>
			<point x="350" y="-158" type="line"/>
			<point x="378" y="-194"/>
			<point x="422" y="-234"/>
		</contour>
	</outline>
	<anchor name="aboveUC" x="490" y="732"/>
	<anchor name="belowLC" x="340" y="-222"/>
</glyph>
<glyph name="rturned.sups" format="2">
	<unicode hex="02B4"/>
	<advance width="200"/>
	<outline>
		<contour>
			<point x="60" y="402" type="curve" smooth="yes"/>
			<point x="98" y="402"/>
			<point x="128" y="424"/>
			<point x="154" y="460" type="curve"/>
			<point x="158" y="460" type="line"/>
			<point x="150" y="410" type="line"/>
			<point x="172" y="410" type="line"/>
			<point x="234" y="726" type="line"/>
			<point x="208" y="726" type="line"/>
			<point x="164" y="508" type="line"/>
			<point x="132" y="454"/>
			<point x="100" y="430"/>
			<point x="68" y="430" type="curve" smooth="yes"/>
			<point x="62" y="430"/>
			<point x="58" y="430"/>
			<point x="50" y="434" type="curve"/>
			<point x="40" y="406" type="line"/>
			<point x="50" y="402"/>
			<point x="54" y="402"/>
		</contour>
	</outline>
</glyph>
<glyph name="glottalstopreversedmod" format="2">
	<unicode hex="02C1"/>
	<advance width="270"/>
	<outline>
		<contour>
			<point x="152" y="372" type="line"/>
			<point x="178" y="372" type="line"/>
			<point x="200" y="486" type="line"/>
			<point x="139" y="522"/>
			<point x="108" y="556"/>
			<point x="108" y="606" type="curve" smooth="yes"/>
			<point x="108" y="662"/>
			<point x="147" y="710"/>
			<point x="218" y="710" type="curve" smooth="yes"/>
			<point x="272" y="710"/>
			<point x="300" y="690"/>
			<point x="324" y="662" type="curve"/>
			<point x="340" y="678" type="line"/>
			<point x="318" y="706"/>
			<point x="278" y="734"/>
			<point x="220" y="734" type="curve" smooth="yes"/>
			<point x="136" y="734"/>
			<point x="82" y="680"/>
			<point x="82" y="602" type="curve" smooth="yes"/>
			<point x="82" y="545"/>
			<point x="119" y="510"/>
			<point x="172" y="474" type="curve"/>
		</contour>
	</outline>
</glyph>
<glyph name="commaturnedabovecmb" format="2">
	<unicode hex="0312"/>
	<outline>
		<contour>
			<point x="108" y="556" type="curve" smooth="yes"/>
			<point x="128" y="556"/>
			<point x="146" y="572"/>
			<point x="146" y="590" type="curve" smooth="yes"/>
			<point x="146" y="608"/>
			<point x="132" y="618"/>
			<point x="115" y="618" type="curve" smooth="yes"/>
			<point x="106" y="618"/>
			<point x="98" y="616"/>
			<point x="92" y="612" type="curve"/>
			<point x="96" y="648"/>
			<point x="116" y="678"/>
			<point x="160" y="696" type="curve"/>
			<point x="152" y="718" type="line"/>
			<point x="94" y="696"/>
			<point x="64" y="646"/>
			<point x="64" y="604" type="curve" smooth="yes"/>
			<point x="64" y="574"/>
			<point x="82" y="556"/>
		</contour>
	</outline>
	<anchor name="_aboveLC" x="100" y="502"/>
</glyph>
<glyph name="cedillacmb" format="2">
	<unicode hex="0327"/>
	<outline>
		<contour>
			<point x="-122" y="-216" type="line"/>
			<point x="-32" y="-214"/>
			<point x="30" y="-181"/>
			<point x="30" y="-124" type="curve" smooth="yes"/>
			<point x="30" y="-96"/>
			<point x="20" y="-80"/>
			<point x="-26" y="-68" type="curve"/>
			<point x="16" y="2" type="line"/>
			<point x="-12" y="2" type="line"/>
			<point x="-68" y="-86" type="line"/>
			<point x="-23" y="-90"/>
			<point x="0" y="-102"/>
			<point x="0" y="-132" type="curve" smooth="yes"/>
			<point x="0" y="-165"/>
			<point x="-42" y="-190"/>
			<point x="-124" y="-192" type="curve"/>
		</contour>
	</outline>
	<anchor name="_baseLC" x="0" y="0"/>
</glyph>
<glyph name="tildeoverlaycmb" format="2">
	<unicode hex="0334"/>
	<outline>
		<contour>
			<point x="118" y="196" type="curve" smooth="yes"/>
			<point x="178" y="196"/>
			<point x="204" y="258"/>
			<point x="216" y="314" type="curve"/>
			<point x="194" y="320" type="line"/>
			<point x="182" y="266"/>
			<point x="160" y="220"/>
			<point x="122" y="220" type="curve" smooth="yes"/>
			<point x="64" y="220"/>
			<point x="60" y="322"/>
			<point x="-10" y="322" type="curve" smooth="yes"/>
			<point x="-70" y="322"/>
			<point x="-96" y="262"/>
			<point x="-108" y="204" type="curve"/>
			<point x="-86" y="198" type="line"/>
			<point x="-74" y="254"/>
			<point x="-52" y="298"/>
			<point x="-14" y="298" type="curve" smooth="yes"/>
			<point x="44" y="298"/>
			<point x="48" y="196"/>
		</contour>
	</outline>
	<anchor name="_center" x="50" y="242"/>
</glyph>
<glyph name="variacmb" format="2">
	<unicode hex="0340"/>
	<outline>
		<contour>
			<point x="120" y="560" type="line"/>
			<point x="140" y="560" type="line"/>
			<point x="122" y="730" type="line"/>
			<point x="92" y="730" type="line"/>
			<point x="90" y="726" type="line"/>
		</contour>
	</outline>
	<anchor name="_aboveLC" x="100" y="502"/>
</glyph>
<glyph name="theta" format="2">
	<unicode hex="03B8"/>
	<advance width="478"/>
	<outline>
		<contour>
			<point x="176" y="-12" type="curve" smooth="yes"/>
			<point x="294" y="-12"/>
			<point x="387" y="144"/>
			<point x="436" y="352" type="curve" smooth="yes"/>
			<point x="450" y="414"/>
			<point x="458" y="482"/>
			<point x="458" y="552" type="curve" smooth="yes"/>
			<point x="458" y="678"/>
			<point x="398" y="734"/>
			<point x="330" y="734" type="curve" smooth="yes"/>
			<point x="220" y="734"/>
			<point x="128" y="613"/>
			<point x="128" y="494" type="curve" smooth="yes"/>
			<point x="128" y="391"/>
			<point x="200" y="334"/>
			<point x="366" y="334" type="curve" smooth="yes"/>
			<point x="414" y="334" type="line"/>
			<point x="422" y="358" type="line"/>
			<point x="374" y="358" type="line" smooth="yes"/>
			<point x="219" y="358"/>
			<point x="156" y="401"/>
			<point x="156" y="500" type="curve" smooth="yes"/>
			<point x="156" y="604"/>
			<point x="236" y="708"/>
			<point x="328" y="708" type="curve" smooth="yes"/>
			<point x="384" y="708"/>
			<point x="430" y="660"/>
			<point x="430" y="546" type="curve" smooth="yes"/>
			<point x="430" y="480"/>
			<point x="422" y="416"/>
			<point x="408" y="358" type="curve" smooth="yes"/>
			<point x="360" y="160"/>
			<point x="278" y="14"/>
			<point x="178" y="14" type="curve" smooth="yes"/>
			<point x="124" y="14"/>
			<point x="88" y="56"/>
			<point x="84" y="158" type="curve" smooth="yes"/>
			<point x="82" y="208"/>
			<point x="78" y="260"/>
			<point x="74" y="278" type="curve"/>
			<point x="46" y="274" type="line"/>
			<point x="52" y="252"/>
			<point x="56" y="196"/>
			<point x="58" y="152" type="curve" smooth="yes"/>
			<point x="63" y="46"/>
			<point x="106" y="-12"/>
		</contour>
	</outline>
	<anchor name="aboveUC" x="330" y="732"/>
	<anchor name="belowLC" x="180" y="-22"/>
</glyph>
<glyph name="xi" format="2">
	<unicode hex="03BE"/>
	<advance width="372"/>
	<outline>
		<contour>
			<point x="246" y="-186" type="line"/>
			<point x="276" y="-152"/>
			<point x="312" y="-110"/>
			<point x="312" y="-66" type="curve" smooth="yes"/>
			<point x="312" y="-22"/>
			<point x="270" y="-2"/>
			<point x="196" y="18" type="curve" smooth="yes"/>
			<point x="122" y="38"/>
			<point x="66" y="64"/>
			<point x="66" y="142" type="curve" smooth="yes"/>
			<point x="66" y="256"/>
			<point x="194" y="362"/>
			<point x="356" y="374" type="curve"/>
			<point x="352" y="402" type="line"/>
			<point x="330" y="398"/>
			<point x="306" y="396"/>
			<point x="282" y="396" type="curve" smooth="yes"/>
			<point x="228" y="396"/>
			<point x="170" y="438"/>
			<point x="170" y="500" type="curve" smooth="yes"/>
			<point x="170" y="600"/>
			<point x="269" y="678"/>
			<point x="448" y="694" type="curve"/>
			<point x="454" y="694" type="line"/>
			<point x="458" y="720" type="line"/>
			<point x="144" y="734" type="line"/>
			<point x="138" y="706" type="line"/>
			<point x="198" y="706"/>
			<point x="284" y="706"/>
			<point x="354" y="702" type="curve"/>
			<point x="354" y="698" type="line"/>
			<point x="244" y="680"/>
			<point x="142" y="607"/>
			<point x="142" y="496" type="curve" smooth="yes"/>
			<point x="142" y="436"/>
			<point x="188" y="394"/>
			<point x="242" y="378" type="curve"/>
			<point x="242" y="374" type="line"/>
			<point x="156" y="344"/>
			<point x="38" y="266"/>
			<point x="38" y="136" type="curve" smooth="yes"/>
			<point x="38" y="56"/>
			<point x="96" y="16"/>
			<point x="176" y="-4" type="curve" smooth="yes"/>
			<point x="262" y="-26"/>
			<point x="284" y="-46"/>
			<point x="284" y="-70" type="curve" smooth="yes"/>
			<point x="284" y="-104"/>
			<point x="257" y="-137"/>
			<point x="224" y="-172" type="curve"/>
		</contour>
	</outline>
	<anchor name="aboveUC" x="310" y="732"/>
	<anchor name="belowLC" x="120" y="-182"/>
</glyph>
<glyph name="theta.a" format="2">
	<unicode hex="03D1"/>
	<advance width="502"/>
	<outline>
		<contour>
			<point x="204" y="-12" type="curve" smooth="yes"/>
			<point x="368" y="-12"/>
			<point x="482" y="310"/>
			<point x="482" y="546" type="curve" smooth="yes"/>
			<point x="482" y="662"/>
			<point x="440" y="734"/>
			<point x="348" y="734" type="curve" smooth="yes"/>
			<point x="184" y="734"/>
			<point x="70" y="412"/>
			<point x="70" y="176" type="curve" smooth="yes"/>
			<point x="70" y="60"/>
			<point x="112" y="-12"/>
		</contour>
		<contour>
			<point x="206" y="14" type="curve" smooth="yes"/>
			<point x="134" y="14"/>
			<point x="98" y="76"/>
			<point x="98" y="182" type="curve" smooth="yes"/>
			<point x="98" y="388"/>
			<point x="204" y="708"/>
			<point x="346" y="708" type="curve" smooth="yes"/>
			<point x="418" y="708"/>
			<point x="454" y="646"/>
			<point x="454" y="540" type="curve" smooth="yes"/>
			<point x="454" y="334"/>
			<point x="348" y="14"/>
		</contour>
		<contour>
			<point x="116" y="354" type="line"/>
			<point x="432" y="354" type="line"/>
			<point x="439" y="380" type="line"/>
			<point x="122" y="380" type="line"/>
		</contour>
	</outline>
	<anchor name="aboveUC" x="350" y="732"/>
	<anchor name="belowLC" x="190" y="-22"/>
</glyph>
<glyph name="sampi" format="2">
	<unicode hex="03E1"/>
	<advance width="447"/>
	<outline>
		<contour>
			<point x="316" y="-190" type="line"/>
			<point x="340" y="-128"/>
			<point x="366" y="-70"/>
			<point x="378" y="65" type="curve" smooth="yes"/>
			<point x="403" y="309"/>
			<point x="322" y="557"/>
			<point x="143" y="691" type="curve"/>
			<point x="125" y="670" type="line"/>
			<point x="297" y="549"/>
			<point x="376" y="305"/>
			<point x="353" y="64" type="curve" smooth="yes"/>
			<point x="341" y="-62"/>
			<point x="316" y="-122"/>
			<point x="290" y="-183" type="curve"/>
		</contour>
		<contour>
			<point x="63" y="73" type="line"/>
			<point x="179" y="114"/>
			<point x="271" y="144"/>
			<point x="380" y="183" type="curve"/>
			<point x="381" y="209" type="line"/>
			<point x="57" y="96" type="line"/>
		</contour>
		<contour>
			<point x="28" y="237" type="line"/>
			<point x="142" y="278"/>
			<point x="236" y="308"/>
			<point x="344" y="346" type="curve"/>
			<point x="345" y="372" type="line"/>
			<point x="20" y="260" type="line"/>
		</contour>
	</outline>
</glyph>
<glyph name="Ieukran" format="2">
	<unicode hex="0404"/>
	<advance width="536"/>
	<outline>
		<contour>
			<point x="278" y="-12" type="curve" smooth="yes"/>
			<point x="350" y="-12"/>
			<point x="404" y="14"/>
			<point x="460" y="60" type="curve"/>
			<point x="442" y="80" type="line"/>
			<point x="392" y="38"/>
			<point x="344" y="14"/>
			<point x="280" y="14" type="curve" smooth="yes"/>
			<point x="146" y="14"/>
			<point x="88" y="118"/>
			<point x="88" y="252" type="curve" smooth="yes"/>
			<point x="88" y="422"/>
			<point x="196" y="646"/>
			<point x="388" y="646" type="curve" smooth="yes"/>
			<point x="450" y="646"/>
			<point x="492" y="610"/>
			<point x="518" y="564" type="curve"/>
			<point x="542" y="580" type="line"/>
			<point x="512" y="628"/>
			<point x="464" y="672"/>
			<point x="390" y="672" type="curve" smooth="yes"/>
			<point x="180" y="672"/>
			<point x="58" y="438"/>
			<point x="58" y="246" type="curve" smooth="yes"/>
			<point x="58" y="100"/>
			<point x="130" y="-12"/>
		</contour>
		<contour>
			<point x="75" y="338" type="line"/>
			<point x="400" y="338" type="line"/>
			<point x="406" y="364" type="line"/>
			<point x="80" y="364" type="line"/>
		</contour>
	</outline>
	<anchor name="aboveUC" x="380" y="682"/>
</glyph>
<glyph name="Yeru" format="2">
	<unicode hex="042B"/>
	<advance width="722"/>
	<outline>
		<contour>
			<point x="40" y="0" type="line"/>
			<point x="206" y="0" type="line" smooth="yes"/>
			<point x="364" y="0"/>
			<point x="470" y="70"/>
			<point x="470" y="210" type="curve" smooth="yes"/>
			<point x="470" y="302"/>
			<point x="394" y="364"/>
			<point x="274" y="364" type="curve" smooth="yes"/>
			<point x="142" y="364" type="line"/>
			<point x="202" y="660" type="line"/>
			<point x="172" y="660" type="line"/>
		</contour>
		<contour>
			<point x="74" y="26" type="line"/>
			<point x="138" y="338" type="line"/>
			<point x="262" y="338" type="line" smooth="yes"/>
			<point x="376" y="338"/>
			<point x="440" y="286"/>
			<point x="440" y="204" type="curve" smooth="yes"/>
			<point x="440" y="84"/>
			<point x="340" y="26"/>
			<point x="196" y="26" type="curve" smooth="yes"/>
		</contour>
		<contour>
			<point x="550" y="0" type="line"/>
			<point x="580" y="0" type="line"/>
			<point x="712" y="660" type="line"/>
			<point x="682" y="660" type="line"/>
		</contour>
	</outline>
	<anchor name="aboveUC" x="440" y="682"/>
</glyph>
<glyph name="em" format="2">
	<unicode hex="043C"/>
	<advance width="614"/>
	<outline>
		<contour>
			<point x="10" y="-8" type="curve" smooth="yes"/>
			<point x="52" y="-8"/>
			<point x="83" y="31"/>
			<point x="106" y="122" type="curve" smooth="yes"/>
			<point x="134" y="235"/>
			<point x="152" y="323"/>
			<point x="168" y="434" type="curve"/>
			<point x="172" y="434" type="line"/>
			<point x="180" y="395"/>
			<point x="186" y="363"/>
			<point x="194" y="326" type="curve" smooth="yes"/>
			<point x="258" y="48" type="line"/>
			<point x="290" y="48" type="line"/>
			<point x="467" y="326" type="line" smooth="yes"/>
			<point x="488" y="362"/>
			<point x="508" y="396"/>
			<point x="531" y="434" type="curve"/>
			<point x="535" y="434" type="line"/>
			<point x="522" y="384"/>
			<point x="510" y="326"/>
			<point x="503" y="292" type="curve" smooth="yes"/>
			<point x="444" y="0" type="line"/>
			<point x="472" y="0" type="line"/>
			<point x="568" y="478" type="line"/>
			<point x="534" y="478" type="line"/>
			<point x="358" y="202" type="line" smooth="yes"/>
			<point x="333" y="162"/>
			<point x="306" y="118"/>
			<point x="280" y="76" type="curve"/>
			<point x="276" y="76" type="line"/>
			<point x="268" y="117"/>
			<point x="259" y="160"/>
			<point x="250" y="200" type="curve" smooth="yes"/>
			<point x="186" y="478" type="line"/>
			<point x="154" y="478" type="line"/>
			<point x="134" y="360"/>
			<point x="110" y="244"/>
			<point x="78" y="126" type="curve" smooth="yes"/>
			<point x="59" y="55"/>
			<point x="40" y="22"/>
			<point x="10" y="22" type="curve" smooth="yes"/>
			<point x="2" y="22"/>
			<point x="-8" y="24"/>
			<point x="-14" y="26" type="curve"/>
			<point x="-24" y="-2" type="line"/>
			<point x="-16" y="-6"/>
			<point x="-4" y="-8"/>
		</contour>
	</outline>
</glyph>
<glyph name="tse" format="2">
	<unicode hex="0446"/>
	<advance width="508"/>
	<outline>
		<contour>
			<point x="366" y="-172" type="line"/>
			<point x="388" y="-172" type="line"/>
			<point x="430" y="12" type="line"/>
			<point x="432" y="26" type="line"/>
			<point x="390" y="26"/>
			<point x="378" y="32"/>
			<point x="378" y="56" type="curve" smooth="yes"/>
			<point x="378" y="62"/>
			<point x="379" y="66"/>
			<point x="380" y="72" type="curve" smooth="yes"/>
			<point x="462" y="478" type="line"/>
			<point x="434" y="478" type="line"/>
			<point x="362" y="120" type="line"/>
			<point x="286" y="46"/>
			<point x="226" y="14"/>
			<point x="182" y="14" type="curve" smooth="yes"/>
			<point x="118" y="14"/>
			<point x="92" y="46"/>
			<point x="92" y="108" type="curve" smooth="yes"/>
			<point x="92" y="128"/>
			<point x="94" y="142"/>
			<point x="100" y="172" type="curve" smooth="yes"/>
			<point x="162" y="478" type="line"/>
			<point x="134" y="478" type="line"/>
			<point x="72" y="168" type="line" smooth="yes"/>
			<point x="66" y="140"/>
			<point x="64" y="128"/>
			<point x="64" y="104" type="curve" smooth="yes"/>
			<point x="64" y="36"/>
			<point x="96" y="-12"/>
			<point x="178" y="-12" type="curve" smooth="yes"/>
			<point x="236" y="-12"/>
			<point x="292" y="28"/>
			<point x="352" y="80" type="curve"/>
			<point x="356" y="80" type="line"/>
			<point x="354" y="70"/>
			<point x="352" y="60"/>
			<point x="352" y="52" type="curve" smooth="yes"/>
			<point x="352" y="18"/>
			<point x="374" y="6"/>
			<point x="400" y="2" type="curve"/>
		</contour>
	</outline>
	<anchor name="aboveLC" x="310" y="500"/>
</glyph>
<glyph name="ecyr" format="2">
	<unicode hex="044D"/>
	<advance width="428"/>
	<outline>
		<contour>
			<point x="130" y="-12" type="curve" smooth="yes"/>
			<point x="272" y="-12"/>
			<point x="382" y="110"/>
			<point x="382" y="296" type="curve" smooth="yes"/>
			<point x="382" y="414"/>
			<point x="316" y="490"/>
			<point x="228" y="490" type="curve" smooth="yes"/>
			<point x="160" y="490"/>
			<point x="116" y="462"/>
			<point x="75" y="430" type="curve"/>
			<point x="90" y="409" type="line"/>
			<point x="130" y="442"/>
			<point x="170" y="464"/>
			<point x="226" y="464" type="curve" smooth="yes"/>
			<point x="302" y="464"/>
			<point x="354" y="394"/>
			<point x="354" y="290" type="curve" smooth="yes"/>
			<point x="354" y="130"/>
			<point x="256" y="14"/>
			<point x="132" y="14" type="curve" smooth="yes"/>
			<point x="80" y="14"/>
			<point x="34" y="40"/>
			<point x="9" y="72" type="curve"/>
			<point x="-12" y="52" type="line"/>
			<point x="18" y="16"/>
			<point x="68" y="-12"/>
		</contour>
		<contour>
			<point x="110" y="239" type="line"/>
			<point x="354" y="239" type="line"/>
			<point x="360" y="265" type="line"/>
			<point x="115" y="265" type="line"/>
		</contour>
	</outline>
	<anchor name="aboveLC" x="240" y="502"/>
</glyph>
<glyph name="ya" format="2">
	<unicode hex="044F"/>
	<advance width="456"/>
	<outline>
		<contour>
			<point x="286" y="0" type="line"/>
			<point x="314" y="0" type="line"/>
			<point x="410" y="478" type="line"/>
			<point x="272" y="478" type="line" smooth="yes"/>
			<point x="152" y="478"/>
			<point x="80" y="431"/>
			<point x="80" y="326" type="curve" smooth="yes"/>
			<point x="80" y="256"/>
			<point x="140" y="218"/>
			<point x="230" y="218" type="curve" smooth="yes"/>
			<point x="330" y="218" type="line"/>
		</contour>
		<contour>
			<point x="240" y="244" type="line" smooth="yes"/>
			<point x="160" y="244"/>
			<point x="108" y="272"/>
			<point x="108" y="332" type="curve" smooth="yes"/>
			<point x="108" y="416"/>
			<point x="168" y="452"/>
			<point x="278" y="452" type="curve" smooth="yes"/>
			<point x="378" y="452" type="line"/>
			<point x="336" y="244" type="line"/>
		</contour>
		<contour>
			<point x="195" y="238" type="line"/>
			<point x="92" y="100" type="line" smooth="yes"/>
			<point x="44" y="35"/>
			<point x="26" y="22"/>
			<point x="2" y="22" type="curve" smooth="yes"/>
			<point x="-4" y="22"/>
			<point x="-8" y="24"/>
			<point x="-14" y="26" type="curve"/>
			<point x="-26" y="-2" type="line"/>
			<point x="-22" y="-4"/>
			<point x="-10" y="-8"/>
			<point x="-1" y="-8" type="curve" smooth="yes"/>
			<point x="36" y="-8"/>
			<point x="63" y="17"/>
			<point x="118" y="92" type="curve" smooth="yes"/>
			<point x="223" y="235" type="line"/>
		</contour>
	</outline>
	<anchor name="aboveLC" x="262" y="500"/>
</glyph>
<glyph name="E.sups" format="2">
	<unicode hex="1D31"/>
	<advance width="324"/>
	<outline>
		<contour>
			<point x="94" y="410" type="line"/>
			<point x="330" y="410" type="line"/>
			<point x="336" y="434" type="line"/>
			<point x="126" y="434" type="line"/>
			<point x="164" y="628" type="line"/>
			<point x="334" y="628" type="line"/>
			<point x="340" y="652" type="line"/>
			<point x="170" y="652" type="line"/>
			<point x="202" y="818" type="line"/>
			<point x="404" y="818" type="line"/>
			<point x="410" y="842" type="line"/>
			<point x="180" y="842" type="line"/>
		</contour>
	</outline>
</glyph>
<glyph name="g.sups" format="2">
	<unicode hex="1D4D"/>
	<advance width="344"/>
	<outline>
		<contour>
			<point x="178" y="258" type="curve" smooth="yes"/>
			<point x="252" y="258"/>
			<point x="303" y="316"/>
			<point x="319" y="396" type="curve" smooth="yes"/>
			<point x="384" y="726" type="line"/>
			<point x="364" y="726" type="line"/>
			<point x="352" y="684" type="line"/>
			<point x="348" y="684" type="line"/>
			<point x="330" y="720"/>
			<point x="300" y="734"/>
			<point x="268" y="734" type="curve" smooth="yes"/>
			<point x="178" y="734"/>
			<point x="92" y="638"/>
			<point x="92" y="524" type="curve" smooth="yes"/>
			<point x="92" y="454"/>
			<point x="130" y="414"/>
			<point x="186" y="414" type="curve" smooth="yes"/>
			<point x="230" y="414"/>
			<point x="268" y="434"/>
			<point x="302" y="462" type="curve"/>
			<point x="306" y="462" type="line"/>
			<point x="294" y="402" type="line" smooth="yes"/>
			<point x="278" y="330"/>
			<point x="240" y="282"/>
			<point x="180" y="282" type="curve" smooth="yes"/>
			<point x="144" y="282"/>
			<point x="108" y="300"/>
			<point x="84" y="322" type="curve"/>
			<point x="68" y="302" type="line"/>
			<point x="100" y="274"/>
			<point x="140" y="258"/>
		</contour>
		<contour>
			<point x="188" y="438" type="curve" smooth="yes"/>
			<point x="148" y="438"/>
			<point x="118" y="468"/>
			<point x="118" y="528" type="curve" smooth="yes"/>
			<point x="118" y="616"/>
			<point x="192" y="710"/>
			<point x="266" y="710" type="curve" smooth="yes"/>
			<point x="294" y="710"/>
			<point x="320" y="696"/>
			<point x="344" y="652" type="curve"/>
			<point x="314" y="500" type="line"/>
			<point x="276" y="464"/>
			<point x="228" y="438"/>
		</contour>
	</outline>
</glyph>
<glyph name="m.sups" format="2">
	<unicode hex="1D50"/>
	<advance width="522"/>
	<outline>
		<contour>
			<point x="94" y="410" type="line"/>
			<point x="120" y="410" type="line"/>
			<point x="166" y="640" type="line"/>
			<point x="208" y="684"/>
			<point x="250" y="710"/>
			<point x="280" y="710" type="curve" smooth="yes"/>
			<point x="314" y="710"/>
			<point x="332" y="690"/>
			<point x="332" y="650" type="curve" smooth="yes"/>
			<point x="332" y="638"/>
			<point x="330" y="628"/>
			<point x="326" y="610" type="curve" smooth="yes"/>
			<point x="286" y="410" type="line"/>
			<point x="312" y="410" type="line"/>
			<point x="358" y="640" type="line"/>
			<point x="398" y="684"/>
			<point x="440" y="710"/>
			<point x="470" y="710" type="curve" smooth="yes"/>
			<point x="504" y="710"/>
			<point x="522" y="690"/>
			<point x="522" y="650" type="curve" smooth="yes"/>
			<point x="522" y="640"/>
			<point x="520" y="628"/>
			<point x="516" y="610" type="curve" smooth="yes"/>
			<point x="476" y="410" type="line"/>
			<point x="502" y="410" type="line"/>
			<point x="542" y="614" type="line" smooth="yes"/>
			<point x="546" y="632"/>
			<point x="548" y="644"/>
			<point x="548" y="656" type="curve" smooth="yes"/>
			<point x="548" y="704"/>
			<point x="528" y="734"/>
			<point x="472" y="734" type="curve" smooth="yes"/>
			<point x="438" y="734"/>
			<point x="400" y="710"/>
			<point x="356" y="672" type="curve"/>
			<point x="352" y="704"/>
			<point x="338" y="734"/>
			<point x="282" y="734" type="curve" smooth="yes"/>
			<point x="248" y="734"/>
			<point x="210" y="710"/>
			<point x="176" y="678" type="curve"/>
			<point x="172" y="678" type="line"/>
			<point x="178" y="726" type="line"/>
			<point x="156" y="726" type="line"/>
		</contour>
	</outline>
</glyph>
<glyph name="upsilonstroke" format="2">
	<unicode hex="1D7F"/>
	<advance width="500"/>
	<outline>
		<contour>
			<point x="-10" y="242" type="line"/>
			<point x="512" y="242" type="line"/>
			<point x="518" y="268" type="line"/>
			<point x="88" y="268" type="line"/>
			<point x="-6" y="264" type="line"/>
		</contour>
		<component base="upsilonlatin"/>
	</outline>
	<anchor name="aboveLC" x="300" y="502"/>
	<anchor name="belowLC" x="210" y="-22"/>
</glyph>
<glyph name="nhookleft.sups" format="2">
	<unicode hex="1DAE"/>
	<advance width="342"/>
	<outline>
		<contour>
			<point x="26" y="258" type="curve" smooth="yes"/>
			<point x="72" y="258"/>
			<point x="97" y="291"/>
			<point x="108" y="348" type="curve" smooth="yes"/>
			<point x="166" y="640" type="line"/>
			<point x="214" y="688"/>
			<point x="252" y="710"/>
			<point x="288" y="710" type="curve" smooth="yes"/>
			<point x="321" y="710"/>
			<point x="338" y="690"/>
			<point x="338" y="650" type="curve" smooth="yes"/>
			<point x="338" y="638"/>
			<point x="336" y="628"/>
			<point x="332" y="610" type="curve" smooth="yes"/>
			<point x="292" y="410" type="line"/>
			<point x="318" y="410" type="line"/>
			<point x="358" y="614" type="line" smooth="yes"/>
			<point x="362" y="632"/>
			<point x="364" y="640"/>
			<point x="364" y="656" type="curve" smooth="yes"/>
			<point x="364" y="704"/>
			<point x="346" y="734"/>
			<point x="290" y="734" type="curve" smooth="yes"/>
			<point x="250" y="734"/>
			<point x="214" y="710"/>
			<point x="176" y="678" type="curve"/>
			<point x="172" y="678" type="line"/>
			<point x="178" y="726" type="line"/>
			<point x="156" y="726" type="line"/>
			<point x="82" y="348" type="line" smooth="yes"/>
			<point x="75" y="310"/>
			<point x="58" y="282"/>
			<point x="28" y="282" type="curve" smooth="yes"/>
			<point x="12" y="282"/>
			<point x="2" y="288"/>
			<point x="-6" y="292" type="curve"/>
			<point x="-18" y="272" type="line"/>
			<point x="-4" y="264"/>
			<point x="10" y="258"/>
		</contour>
	</outline>
</glyph>
<glyph name="deltalatin" format="2">
	<unicode hex="1E9F"/>
	<advance width="494"/>
	<outline>
		<contour>
			<point x="212" y="-12" type="curve" smooth="yes"/>
			<point x="352" y="-12"/>
			<point x="446" y="126"/>
			<point x="446" y="282" type="curve" smooth="yes"/>
			<point x="446" y="460"/>
			<point x="292" y="618"/>
			<point x="206" y="696" type="curve"/>
			<point x="516" y="696" type="line"/>
			<point x="522" y="722" type="line"/>
			<point x="174" y="722" type="line"/>
			<point x="168" y="696" type="line"/>
			<point x="274" y="604"/>
			<point x="418" y="444"/>
			<point x="418" y="276" type="curve" smooth="yes"/>
			<point x="418" y="144"/>
			<point x="336" y="14"/>
			<point x="214" y="14" type="curve" smooth="yes"/>
			<point x="132" y="14"/>
			<point x="76" y="78"/>
			<point x="76" y="182" type="curve" smooth="yes"/>
			<point x="76" y="304"/>
			<point x="168" y="454"/>
			<point x="368" y="462" type="curve"/>
			<point x="360" y="486" type="line"/>
			<point x="154" y="476"/>
			<point x="48" y="322"/>
			<point x="48" y="176" type="curve" smooth="yes"/>
			<point x="48" y="56"/>
			<point x="122" y="-12"/>
		</contour>
	</outline>
	<anchor name="aboveUC" x="350" y="732"/>
	<anchor name="belowLC" x="200" y="-22"/>
</glyph>
<glyph name="quotereversed" format="2">
	<unicode hex="201B"/>
	<advance width="202"/>
	<outline>
		<contour>
			<point x="174" y="498" type="curve"/>
			<point x="194" y="518" type="line"/>
			<point x="167" y="540"/>
			<point x="152" y="567"/>
			<point x="152" y="596" type="curve" smooth="yes"/>
			<point x="152" y="610"/>
			<point x="156" y="624"/>
			<point x="162" y="638" type="curve"/>
			<point x="188" y="688" type="line"/>
			<point x="146" y="648" type="line"/>
			<point x="150" y="638"/>
			<point x="158" y="636"/>
			<point x="164" y="636" type="curve" smooth="yes"/>
			<point x="187" y="636"/>
			<point x="211" y="656"/>
			<point x="211" y="681" type="curve" smooth="yes"/>
			<point x="211" y="693"/>
			<point x="203" y="702"/>
			<point x="190" y="702" type="curve" smooth="yes"/>
			<point x="152" y="702"/>
			<point x="124" y="650"/>
			<point x="124" y="594" type="curve" smooth="yes"/>
			<point x="124" y="553"/>
			<point x="142" y="521"/>
		</contour>
	</outline>
</glyph>
<glyph name="won" format="2">
	<unicode hex="20A9"/>
	<advance width="456"/>
	<outline>
		<contour>
			<point x="48" y="0" type="line"/>
			<point x="88" y="0" type="line"/>
			<point x="238" y="436" type="line"/>
			<point x="284" y="572" type="line"/>
			<point x="287" y="572" type="line"/>
			<point x="278" y="436" type="line"/>
			<point x="260" y="0" type="line"/>
			<point x="300" y="0" type="line"/>
			<point x="512" y="640" type="line"/>
			<point x="482" y="640" type="line"/>
			<point x="326" y="154" type="line"/>
			<point x="290" y="40" type="line"/>
			<point x="286" y="40" type="line"/>
			<point x="292" y="154" type="line"/>
			<point x="312" y="600" type="line"/>
			<point x="270" y="600" type="line"/>
			<point x="114" y="154" type="line"/>
			<point x="79" y="40" type="line"/>
			<point x="75" y="40" type="line"/>
			<point x="82" y="154" type="line"/>
			<point x="118" y="640" type="line"/>
			<point x="86" y="640" type="line"/>
		</contour>
		<contour>
			<point x="-4" y="316" type="line"/>
			<point x="468" y="316" type="line"/>
			<point x="474" y="340" type="line"/>
			<point x="82" y="340" type="line"/>
			<point x="2" y="336" type="line"/>
		</contour>
	</outline>
</glyph>
<glyph name="arrowleft" format="2">
	<unicode hex="2190"/>
	<advance width="594"/>
	<outline>
		<contour>
			<point x="279" y="-15" type="line"/>
			<point x="297" y="3" type="line"/>
			<point x="65" y="237" type="line"/>
			<point x="573" y="237" type="line"/>
			<point x="573" y="263" type="line"/>
			<point x="65" y="263" type="line"/>
			<point x="297" y="497" type="line"/>
			<point x="279" y="515" type="line"/>
			<point x="21" y="253" type="line"/>
			<point x="21" y="247" type="line"/>
		</contour>
	</outline>
</glyph>
<glyph name="arrowdown" format="2">
	<unicode hex="2193"/>
	<advance width="594"/>
	<outline>
		<contour>
			<point x="294" y="-26" type="line"/>
			<point x="300" y="-26" type="line"/>
			<point x="562" y="232" type="line"/>
			<point x="544" y="250" type="line"/>
			<point x="310" y="18" type="line"/>
			<point x="310" y="526" type="line"/>
			<point x="284" y="526" type="line"/>
			<point x="284" y="18" type="line"/>
			<point x="50" y="250" type="line"/>
			<point x="32" y="232" type="line"/>
		</contour>
	</outline>
</glyph>
<glyph name="arrowupleft" format="2">
	<unicode hex="2196"/>
	<advance width="594"/>
	<outline>
		<contour>
			<point x="478" y="48" type="line"/>
			<point x="495" y="67" type="line"/>
			<point x="137" y="425" type="line"/>
			<point x="475" y="418" type="line"/>
			<point x="475" y="445" type="line"/>
			<point x="99" y="448" type="line"/>
			<point x="96" y="445" type="line"/>
			<point x="99" y="69" type="line"/>
			<point x="126" y="69" type="line"/>
			<point x="119" y="406" type="line"/>
		</contour>
	</outline>
</glyph>
<glyph name="universal" format="2">
	<unicode hex="2200"/>
	<advance width="480"/>
	<outline>
		<contour>
			<point x="150" y="0" type="line"/>
			<point x="180" y="0" type="line"/>
			<point x="546" y="660" type="line"/>
			<point x="512" y="660" type="line"/>
			<point x="296" y="264" type="line" smooth="yes"/>
			<point x="254" y="186"/>
			<point x="214" y="116"/>
			<point x="174" y="34" type="curve"/>
			<point x="170" y="34" type="line"/>
			<point x="162" y="114"/>
			<point x="152" y="190"/>
			<point x="144" y="264" type="curve" smooth="yes"/>
			<point x="96" y="660" type="line"/>
			<point x="66" y="660" type="line"/>
		</contour>
		<contour>
			<point x="108" y="396" type="line"/>
			<point x="388" y="396" type="line"/>
			<point x="396" y="422" type="line"/>
			<point x="114" y="422" type="line"/>
		</contour>
	</outline>
</glyph>
<glyph name="partialdiff" format="2">
	<unicode hex="2202"/>
	<advance width="484"/>
	<outline>
		<contour>
			<point x="168" y="-12" type="curve" smooth="yes"/>
			<point x="334" y="-12"/>
			<point x="464" y="232"/>
			<point x="464" y="464" type="curve" smooth="yes"/>
			<point x="464" y="584"/>
			<point x="416" y="666"/>
			<point x="306" y="666" type="curve" smooth="yes"/>
			<point x="258" y="666"/>
			<point x="214" y="642"/>
			<point x="180" y="612" type="curve"/>
			<point x="194" y="592" type="line"/>
			<point x="224" y="618"/>
			<point x="266" y="640"/>
			<point x="304" y="640" type="curve" smooth="yes"/>
			<point x="396" y="640"/>
			<point x="436" y="566"/>
			<point x="436" y="458" type="curve" smooth="yes"/>
			<point x="436" y="255"/>
			<point x="322" y="16"/>
			<point x="170" y="14" type="curve" smooth="yes"/>
			<point x="94" y="14"/>
			<point x="48" y="76"/>
			<point x="46" y="142" type="curve" smooth="yes"/>
			<point x="46" y="254"/>
			<point x="124" y="368"/>
			<point x="242" y="368" type="curve" smooth="yes"/>
			<point x="322" y="368"/>
			<point x="372" y="316"/>
			<point x="408" y="254" type="curve"/>
			<point x="418" y="286" type="line"/>
			<point x="380" y="346"/>
			<point x="326" y="394"/>
			<point x="244" y="394" type="curve" smooth="yes"/>
			<point x="108" y="394"/>
			<point x="18" y="264"/>
			<point x="18" y="140" type="curve" smooth="yes"/>
			<point x="18" y="48"/>
			<point x="82" y="-12"/>
		</contour>
	</outline>
</glyph>
<glyph name="ceilingright" format="2">
	<unicode hex="231D"/>
	<advance width="262"/>
	<outline>
		<contour>
			<point x="88" y="0" type="line"/>
			<point x="110" y="0" type="line"/>
			<point x="250" y="688" type="line"/>
			<point x="104" y="688" type="line"/>
			<point x="100" y="666" type="line"/>
			<point x="222" y="666" type="line"/>
		</contour>
	</outline>
</glyph>
<glyph name="trianglesmallrightwhite" format="2">
	<unicode hex="25B9"/>
	<advance width="266"/>
	<outline>
		<contour>
			<point x="36" y="132" type="line"/>
			<point x="38" y="132" type="line"/>
			<point x="262" y="262" type="line"/>
			<point x="262" y="264" type="line"/>
			<point x="38" y="394" type="line"/>
			<point x="36" y="394" type="line"/>
		</contour>
		<contour>
			<point x="58" y="168" type="line"/>
			<point x="58" y="358" type="line"/>
			<point x="221" y="263" type="line"/>
		</contour>
	</outline>
</glyph>
<glyph name="astroke" format="2">
	<unicode hex="2C65"/>
	<advance width="524"/>
	<outline>
		<contour>
			<point x="98" y="-40" type="line"/>
			<point x="430" y="506" type="line"/>
			<point x="408" y="518" type="line"/>
			<point x="76" y="-28" type="line"/>
		</contour>
		<component base="a"/>
	</outline>
	<anchor name="aboveLC" x="310" y="502"/>
	<anchor name="belowLC" x="210" y="-22"/>
</glyph>
<glyph name="tstroke" format="2">
	<unicode hex="2C66"/>
	<advance width="290"/>
	<outline>
		<contour>
			<point x="-18" y="-24" type="line"/>
			<point x="330" y="500" type="line"/>
			<point x="310" y="512" type="line"/>
			<point x="-40" y="-12" type="line"/>
		</contour>
		<component base="t"/>
	</outline>
	<anchor name="aboveLC" x="200" y="632"/>
	<anchor name="belowLC" x="150" y="-22"/>
</glyph>
<glyph name="twoemdash" format="2">
	<unicode hex="2E3A"/>
	<advance width="1440"/>
	<outline>
		<contour>
			<point x="36" y="238" type="line"/>
			<point x="1398" y="238" type="line"/>
			<point x="1404" y="264" type="line"/>
			<point x="42" y="264" type="line"/>
		</contour>
	</outline>
</glyph>
<glyph name="Rrotunda" format="2">
	<unicode hex="A75A"/>
	<advance width="472"/>
	<outline>
		<contour>
			<point x="322" y="-12" type="curve" smooth="yes"/>
			<point x="354" y="-12"/>
			<point x="384" y="-4"/>
			<point x="402" y="2" type="curve"/>
			<point x="396" y="26" type="line"/>
			<point x="378" y="22"/>
			<point x="354" y="16"/>
			<point x="324" y="16" type="curve" smooth="yes"/>
			<point x="185" y="16"/>
			<point x="104" y="64"/>
			<point x="84" y="148" type="curve"/>
			<point x="348" y="282"/>
			<point x="462" y="420"/>
			<point x="462" y="554" type="curve" smooth="yes"/>
			<point x="462" y="630"/>
			<point x="416" y="672"/>
			<point x="338" y="672" type="curve" smooth="yes"/>
			<point x="268" y="672"/>
			<point x="208" y="636"/>
			<point x="145" y="574" type="curve"/>
			<point x="160" y="557" type="line"/>
			<point x="224" y="618"/>
			<point x="280" y="646"/>
			<point x="336" y="646" type="curve" smooth="yes"/>
			<point x="396" y="646"/>
			<point x="432" y="612"/>
			<point x="432" y="548" type="curve" smooth="yes"/>
			<point x="432" y="432"/>
			<point x="338" y="306"/>
			<point x="54" y="162" type="curve"/>
			<point x="70" y="44"/>
			<point x="162" y="-12"/>
		</contour>
	</outline>
	<anchor name="aboveUC" x="327" y="682"/>
	<anchor name="belowLC" x="196" y="-22"/>
</glyph>
<glyph name="that" format="2">
	<unicode hex="A765"/>
	<advance width="518"/>
	<outline>
		<contour>
			<point x="20" y="-222" type="line"/>
			<point x="48" y="-222" type="line"/>
			<point x="82" y="-42" type="line"/>
			<point x="104" y="68" type="line"/>
			<point x="106" y="68" type="line"/>
			<point x="135" y="22"/>
			<point x="178" y="-12"/>
			<point x="236" y="-12" type="curve" smooth="yes"/>
			<point x="368" y="-12"/>
			<point x="492" y="130"/>
			<point x="492" y="308" type="curve" smooth="yes"/>
			<point x="492" y="413"/>
			<point x="436" y="470"/>
			<point x="352" y="470" type="curve" smooth="yes"/>
			<point x="284" y="470"/>
			<point x="222" y="430"/>
			<point x="170" y="388" type="curve"/>
			<point x="168" y="388" type="line"/>
			<point x="188" y="486" type="line"/>
			<point x="236" y="722" type="line"/>
			<point x="208" y="722" type="line"/>
		</contour>
		<contour>
			<point x="88" y="584" type="line"/>
			<point x="394" y="584" type="line"/>
			<point x="400" y="610" type="line"/>
			<point x="186" y="610" type="line"/>
			<point x="92" y="606" type="line"/>
		</contour>
		<contour>
			<point x="238" y="14" type="curve" smooth="yes"/>
			<point x="190" y="14"/>
			<point x="150" y="38"/>
			<point x="112" y="102" type="curve"/>
			<point x="162" y="352" type="line"/>
			<point x="220" y="404"/>
			<point x="294" y="444"/>
			<point x="350" y="444" type="curve" smooth="yes"/>
			<point x="420" y="444"/>
			<point x="464" y="396"/>
			<point x="464" y="302" type="curve" smooth="yes"/>
			<point x="464" y="159"/>
			<point x="358" y="14"/>
		</contour>
	</outline>
</glyph>
<glyph name="Ginsular" format="2">
	<unicode hex="A77D"/>
	<advance width="568"/>
	<outline>
		<contour>
			<point x="212" y="-150" type="curve" smooth="yes"/>
			<point x="403" y="-147"/>
			<point x="496" y="-34"/>
			<point x="496" y="58" type="curve" smooth="yes"/>
			<point x="496" y="131"/>
			<point x="440" y="164"/>
			<point x="330" y="208" type="curve" smooth="yes"/>
			<point x="204" y="258"/>
			<point x="156" y="316"/>
			<point x="156" y="402" type="curve" smooth="yes"/>
			<point x="156" y="502"/>
			<point x="241" y="632"/>
			<point x="440" y="632" type="curve" smooth="yes"/>
			<point x="597" y="632" type="line"/>
			<point x="603" y="660" type="line"/>
			<point x="106" y="660" type="line"/>
			<point x="100" y="632" type="line"/>
			<point x="298" y="632" type="line"/>
			<point x="298" y="628" type="line"/>
			<point x="200" y="596"/>
			<point x="126" y="510"/>
			<point x="126" y="396" type="curve" smooth="yes"/>
			<point x="126" y="321"/>
			<point x="166" y="273"/>
			<point x="218" y="234" type="curve"/>
			<point x="218" y="230" type="line"/>
			<point x="110" y="184"/>
			<point x="6" y="98"/>
			<point x="6" y="-6" type="curve" smooth="yes"/>
			<point x="6" y="-105"/>
			<point x="91" y="-152"/>
		</contour>
		<contour>
			<point x="214" y="-124" type="curve" smooth="yes"/>
			<point x="107" y="-124"/>
			<point x="36" y="-81"/>
			<point x="36" y="-2" type="curve" smooth="yes"/>
			<point x="36" y="84"/>
			<point x="124" y="166"/>
			<point x="244" y="214" type="curve"/>
			<point x="364" y="160"/>
			<point x="466" y="140"/>
			<point x="466" y="52" type="curve" smooth="yes"/>
			<point x="466" y="-27"/>
			<point x="367" y="-124"/>
		</contour>
	</outline>
	<anchor name="aboveUC" x="360" y="682"/>
	<anchor name="belowLC" x="210" y="-142"/>
	<guideline x="649" y="-152" angle="0" identifier="nvul6JeT8V"/>
</glyph>
<glyph name="C.sups" format="2">
	<unicode hex="A7F2"/>
	<advance width="354"/>
	<outline>
		<contour>
			<point x="250" y="402" type="curve" smooth="yes"/>
			<point x="300" y="402"/>
			<point x="336" y="420"/>
			<point x="372" y="452" type="curve"/>
			<point x="360" y="470" type="line"/>
			<point x="328" y="444"/>
			<point x="296" y="428"/>
			<point x="252" y="428" type="curve" smooth="yes"/>
			<point x="168" y="428"/>
			<point x="130" y="494"/>
			<point x="130" y="578" type="curve" smooth="yes"/>
			<point x="130" y="684"/>
			<point x="200" y="824"/>
			<point x="324" y="824" type="curve" smooth="yes"/>
			<point x="366" y="824"/>
			<point x="394" y="804"/>
			<point x="410" y="774" type="curve"/>
			<point x="428" y="786" type="line"/>
			<point x="412" y="824"/>
			<point x="374" y="850"/>
			<point x="325" y="850" type="curve" smooth="yes"/>
			<point x="184" y="850"/>
			<point x="102" y="698"/>
			<point x="102" y="574" type="curve" smooth="yes"/>
			<point x="102" y="478"/>
			<point x="152" y="402"/>
		</contour>
	</outline>
</glyph>
<glyph name="norights" format="2">
	<unicode hex="1F10D"/>
	<advance width="660"/>
	<outline>
		<contour>
			<point x="298" y="-12" type="curve" smooth="yes"/>
			<point x="514" y="-12"/>
			<point x="652" y="190"/>
			<point x="652" y="376" type="curve" smooth="yes"/>
			<point x="652" y="540"/>
			<point x="548" y="652"/>
			<point x="394" y="652" type="curve" smooth="yes"/>
			<point x="178" y="652"/>
			<point x="40" y="450"/>
			<point x="40" y="264" type="curve" smooth="yes"/>
			<point x="40" y="100"/>
			<point x="144" y="-12"/>
		</contour>
		<contour>
			<point x="300" y="12" type="curve" smooth="yes"/>
			<point x="158" y="12"/>
			<point x="66" y="112"/>
			<point x="66" y="268" type="curve" smooth="yes"/>
			<point x="66" y="434"/>
			<point x="194" y="628"/>
			<point x="392" y="628" type="curve" smooth="yes"/>
			<point x="534" y="628"/>
			<point x="626" y="528"/>
			<point x="626" y="372" type="curve" smooth="yes"/>
			<point x="626" y="206"/>
			<point x="498" y="12"/>
		</contour>
		<contour>
			<point x="312" y="128" type="curve" smooth="yes"/>
			<point x="420" y="128"/>
			<point x="506" y="246"/>
			<point x="506" y="366" type="curve" smooth="yes"/>
			<point x="506" y="450"/>
			<point x="460" y="512"/>
			<point x="380" y="512" type="curve" smooth="yes"/>
			<point x="272" y="512"/>
			<point x="186" y="394"/>
			<point x="186" y="274" type="curve" smooth="yes"/>
			<point x="186" y="190"/>
			<point x="232" y="128"/>
		</contour>
		<contour>
			<point x="314" y="154" type="curve" smooth="yes"/>
			<point x="251" y="154"/>
			<point x="214" y="210"/>
			<point x="214" y="280" type="curve" smooth="yes"/>
			<point x="214" y="382"/>
			<point x="288" y="486"/>
			<point x="378" y="486" type="curve" smooth="yes"/>
			<point x="441" y="486"/>
			<point x="478" y="430"/>
			<point x="478" y="360" type="curve" smooth="yes"/>
			<point x="478" y="258"/>
			<point x="404" y="154"/>
		</contour>
		<contour>
			<point x="403" y="180" type="line"/>
			<point x="428" y="184" type="line"/>
			<point x="290" y="464" type="line"/>
			<point x="265" y="460" type="line"/>
		</contour>
	</outline>
</glyph>
<glyph name="noncommercial" format="2">
	<unicode hex="1F10F"/>
	<advance width="660"/>
	<outline>
		<contour>
			<point x="310" y="130" type="curve" smooth="yes"/>
			<point x="384" y="130"/>
			<point x="438" y="181"/>
			<point x="438" y="234" type="curve" smooth="yes"/>
			<point x="438" y="246"/>
			<point x="436" y="254"/>
			<point x="430" y="266" type="curve"/>
			<point x="419" y="254" type="line"/>
			<point x="559" y="154" type="line"/>
			<point x="584" y="170" type="line"/>
			<point x="320" y="358" type="line" smooth="yes"/>
			<point x="304" y="369"/>
			<point x="298" y="384"/>
			<point x="298" y="402" type="curve" smooth="yes"/>
			<point x="298" y="452"/>
			<point x="328" y="486"/>
			<point x="386" y="486" type="curve" smooth="yes"/>
			<point x="426" y="486"/>
			<point x="450" y="468"/>
			<point x="468" y="440" type="curve"/>
			<point x="488" y="454" type="line"/>
			<point x="469" y="488"/>
			<point x="431" y="512"/>
			<point x="392" y="512" type="curve" smooth="yes"/>
			<point x="320" y="512"/>
			<point x="270" y="466"/>
			<point x="270" y="408" type="curve" smooth="yes"/>
			<point x="270" y="394"/>
			<point x="273" y="381"/>
			<point x="282" y="366" type="curve"/>
			<point x="292" y="376" type="line"/>
			<point x="134" y="490" type="line"/>
			<point x="108" y="474" type="line"/>
			<point x="384" y="278" type="line" smooth="yes"/>
			<point x="401" y="266"/>
			<point x="410" y="251"/>
			<point x="410" y="232" type="curve" smooth="yes"/>
			<point x="410" y="189"/>
			<point x="369" y="156"/>
			<point x="312" y="156" type="curve" smooth="yes"/>
			<point x="268" y="156"/>
			<point x="236" y="178"/>
			<point x="214" y="214" type="curve"/>
			<point x="194" y="200" type="line"/>
			<point x="218" y="158"/>
			<point x="260" y="130"/>
		</contour>
		<contour>
			<point x="278" y="58" type="line"/>
			<point x="306" y="58" type="line"/>
			<point x="322" y="136" type="line"/>
			<point x="294" y="136" type="line"/>
		</contour>
		<contour>
			<point x="374" y="496" type="line"/>
			<point x="402" y="496" type="line"/>
			<point x="422" y="590" type="line"/>
			<point x="394" y="590" type="line"/>
		</contour>
		<contour>
			<point x="298" y="-12" type="curve" smooth="yes"/>
			<point x="514" y="-12"/>
			<point x="652" y="190"/>
			<point x="652" y="376" type="curve" smooth="yes"/>
			<point x="652" y="540"/>
			<point x="548" y="652"/>
			<point x="394" y="652" type="curve" smooth="yes"/>
			<point x="178" y="652"/>
			<point x="40" y="450"/>
			<point x="40" y="264" type="curve" smooth="yes"/>
			<point x="40" y="100"/>
			<point x="144" y="-12"/>
		</contour>
		<contour>
			<point x="300" y="12" type="curve" smooth="yes"/>
			<point x="158" y="12"/>
			<point x="66" y="112"/>
			<point x="66" y="268" type="curve" smooth="yes"/>
			<point x="66" y="434"/>
			<point x="194" y="628"/>
			<point x="392" y="628" type="curve" smooth="yes"/>
			<point x="534" y="628"/>
			<point x="626" y="528"/>
			<point x="626" y="372" type="curve" smooth="yes"/>
			<point x="626" y="206"/>
			<point x="498" y="12"/>
		</contour>
	</outline>
</glyph>
<glyph name="Yi.a" format="2">
	<advance width="212"/>
	<outline>
		<contour>
			<point x="142" y="726" type="curve" smooth="yes"/>
			<point x="158" y="726"/>
			<point x="174" y="742"/>
			<point x="174" y="762" type="curve" smooth="yes"/>
			<point x="174" y="780"/>
			<point x="164" y="790"/>
			<point x="148" y="790" type="curve" smooth="yes"/>
			<point x="132" y="790"/>
			<point x="116" y="774"/>
			<point x="116" y="752" type="curve" smooth="yes"/>
			<point x="116" y="736"/>
			<point x="126" y="726"/>
		</contour>
		<contour>
			<point x="252" y="726" type="curve" smooth="yes"/>
			<point x="268" y="726"/>
			<point x="284" y="742"/>
			<point x="284" y="762" type="curve" smooth="yes"/>
			<point x="284" y="780"/>
			<point x="274" y="790"/>
			<point x="258" y="790" type="curve" smooth="yes"/>
			<point x="242" y="790"/>
			<point x="226" y="774"/>
			<point x="226" y="752" type="curve" smooth="yes"/>
			<point x="226" y="736"/>
			<point x="236" y="726"/>
		</contour>
		<component base="Iukran"/>
	</outline>
</glyph>
<glyph name="circumflexbreve" format="2">
	<outline>
		<contour>
			<point x="-30" y="570" type="line"/>
			<point x="0" y="570" type="line"/>
			<point x="126" y="640" type="line"/>
			<point x="130" y="640" type="line"/>
			<point x="224" y="570" type="line"/>
			<point x="250" y="570" type="line"/>
			<point x="140" y="670" type="line"/>
			<point x="120" y="670" type="line"/>
		</contour>
		<contour>
			<point x="132" y="694" type="curve" smooth="yes"/>
			<point x="210" y="694"/>
			<point x="254" y="738"/>
			<point x="268" y="776" type="curve"/>
			<point x="242" y="780" type="line"/>
			<point x="230" y="748"/>
			<point x="196" y="720"/>
			<point x="134" y="720" type="curve" smooth="yes"/>
			<point x="75" y="720"/>
			<point x="50" y="747"/>
			<point x="50" y="778" type="curve"/>
			<point x="24" y="776" type="line"/>
			<point x="24" y="734"/>
			<point x="52" y="694"/>
		</contour>
	</outline>
	<anchor name="_aboveLC" x="100" y="502"/>
</glyph>
<glyph name="circumflexcaron" format="2">
	<outline>
		<contour>
			<point x="-30" y="570" type="line"/>
			<point x="0" y="570" type="line"/>
			<point x="126" y="640" type="line"/>
			<point x="130" y="640" type="line"/>
			<point x="224" y="570" type="line"/>
			<point x="250" y="570" type="line"/>
			<point x="140" y="670" type="line"/>
			<point x="120" y="670" type="line"/>
		</contour>
		<contour>
			<point x="124" y="690" type="line"/>
			<point x="144" y="690" type="line"/>
			<point x="294" y="790" type="line"/>
			<point x="264" y="790" type="line"/>
			<point x="138" y="720" type="line"/>
			<point x="134" y="720" type="line"/>
			<point x="40" y="790" type="line"/>
			<point x="14" y="790" type="line"/>
		</contour>
	</outline>
	<anchor name="_aboveLC" x="100" y="502"/>
</glyph>
<glyph name="circumflexgrave" format="2">
	<outline>
		<contour>
			<point x="-30" y="570" type="line"/>
			<point x="0" y="570" type="line"/>
			<point x="124" y="650" type="line"/>
			<point x="128" y="650" type="line"/>
			<point x="224" y="570" type="line"/>
			<point x="250" y="570" type="line"/>
			<point x="140" y="684" type="line"/>
			<point x="120" y="684" type="line"/>
		</contour>
		<contour>
			<point x="26" y="650" type="line"/>
			<point x="50" y="650" type="line"/>
			<point x="-26" y="750" type="line"/>
			<point x="-58" y="750" type="line"/>
			<point x="-60" y="746" type="line"/>
		</contour>
	</outline>
	<anchor name="_aboveLC" x="100" y="502"/>
</glyph>
<glyph name="circumflexhoi" format="2">
	<outline>
		<contour>
			<point x="232" y="648" type="line"/>
			<point x="284" y="660"/>
			<point x="314" y="692"/>
			<point x="314" y="732" type="curve" smooth="yes"/>
			<point x="314" y="772"/>
			<point x="270" y="788"/>
			<point x="224" y="790" type="curve"/>
			<point x="218" y="766" type="line"/>
			<point x="262" y="764"/>
			<point x="286" y="752"/>
			<point x="286" y="728" type="curve" smooth="yes"/>
			<point x="286" y="698"/>
			<point x="266" y="682"/>
			<point x="226" y="670" type="curve"/>
		</contour>
		<contour>
			<point x="-30" y="570" type="line"/>
			<point x="0" y="570" type="line"/>
			<point x="124" y="650" type="line"/>
			<point x="128" y="650" type="line"/>
			<point x="224" y="570" type="line"/>
			<point x="250" y="570" type="line"/>
			<point x="140" y="684" type="line"/>
			<point x="120" y="684" type="line"/>
		</contour>
	</outline>
	<anchor name="_aboveLC" x="100" y="502"/>
</glyph>
<glyph name="dieresisgrave.cap" format="2">
	<outline>
		<contour>
			<point x="54" y="726" type="curve" smooth="yes"/>
			<point x="70" y="726"/>
			<point x="86" y="742"/>
			<point x="86" y="762" type="curve" smooth="yes"/>
			<point x="86" y="780"/>
			<point x="76" y="790"/>
			<point x="60" y="790" type="curve" smooth="yes"/>
			<point x="44" y="790"/>
			<point x="28" y="774"/>
			<point x="28" y="752" type="curve" smooth="yes"/>
			<point x="28" y="736"/>
			<point x="38" y="726"/>
		</contour>
		<contour>
			<point x="236" y="726" type="curve" smooth="yes"/>
			<point x="252" y="726"/>
			<point x="268" y="742"/>
			<point x="268" y="762" type="curve" smooth="yes"/>
			<point x="268" y="780"/>
			<point x="258" y="790"/>
			<point x="242" y="790" type="curve" smooth="yes"/>
			<point x="226" y="790"/>
			<point x="210" y="774"/>
			<point x="210" y="752" type="curve" smooth="yes"/>
			<point x="210" y="736"/>
			<point x="220" y="726"/>
		</contour>
		<contour>
			<point x="168" y="820" type="line"/>
			<point x="190" y="820" type="line"/>
			<point x="114" y="920" type="line"/>
			<point x="82" y="920" type="line"/>
			<point x="80" y="916" type="line"/>
		</contour>
	</outline>
	<anchor name="_aboveUC" x="130" y="682"/>
</glyph>
<glyph name="five.tnum" format="2">
	<advance width="456"/>
	<outline>
		<contour>
			<point x="156" y="-84" type="curve" smooth="yes"/>
			<point x="278" y="-84"/>
			<point x="384" y="10"/>
			<point x="384" y="158" type="curve" smooth="yes"/>
			<point x="384" y="270"/>
			<point x="314" y="330"/>
			<point x="218" y="330" type="curve" smooth="yes"/>
			<point x="176" y="330"/>
			<point x="142" y="318"/>
			<point x="116" y="304" type="curve"/>
			<point x="182" y="544" type="line"/>
			<point x="422" y="544" type="line"/>
			<point x="428" y="570" type="line"/>
			<point x="162" y="570" type="line"/>
			<point x="82" y="282" type="line"/>
			<point x="100" y="268" type="line"/>
			<point x="140" y="290"/>
			<point x="170" y="304"/>
			<point x="218" y="304" type="curve" smooth="yes"/>
			<point x="300" y="304"/>
			<point x="356" y="252"/>
			<point x="356" y="152" type="curve" smooth="yes"/>
			<point x="356" y="26"/>
			<point x="264" y="-58"/>
			<point x="162" y="-58" type="curve" smooth="yes"/>
			<point x="70" y="-58"/>
			<point x="32" y="-6"/>
			<point x="6" y="36" type="curve"/>
			<point x="-16" y="20" type="line"/>
			<point x="10" y="-26"/>
			<point x="62" y="-84"/>
		</contour>
	</outline>
</glyph>
<glyph name="florin.a" format="2">
	<advance width="456"/>
	<outline>
		<contour>
			<point x="10" y="-98" type="curve" smooth="yes"/>
			<point x="90" y="-98"/>
			<point x="140" y="-24"/>
			<point x="173" y="84" type="curve" smooth="yes"/>
			<point x="295" y="480" type="line" smooth="yes"/>
			<point x="320" y="561"/>
			<point x="362" y="646"/>
			<point x="424" y="646" type="curve" smooth="yes"/>
			<point x="448" y="646"/>
			<point x="468" y="638"/>
			<point x="488" y="626" type="curve"/>
			<point x="500" y="650" type="line"/>
			<point x="480" y="662"/>
			<point x="454" y="672"/>
			<point x="426" y="672" type="curve" smooth="yes"/>
			<point x="350" y="672"/>
			<point x="297" y="586"/>
			<point x="266" y="484" type="curve" smooth="yes"/>
			<point x="144" y="88" type="line" smooth="yes"/>
			<point x="118" y="2"/>
			<point x="74" y="-72"/>
			<point x="12" y="-72" type="curve" smooth="yes"/>
			<point x="-8" y="-72"/>
			<point x="-26" y="-66"/>
			<point x="-44" y="-54" type="curve"/>
			<point x="-58" y="-78" type="line"/>
			<point x="-36" y="-92"/>
			<point x="-16" y="-98"/>
		</contour>
		<contour>
			<point x="138" y="376" type="line"/>
			<point x="400" y="376" type="line"/>
			<point x="406" y="402" type="line"/>
			<point x="208" y="402" type="line"/>
			<point x="144" y="400" type="line"/>
		</contour>
	</outline>
</glyph>
<glyph name="g.a" format="2">
	<advance width="456"/>
	<outline>
		<contour>
			<point x="156" y="-234" type="curve" smooth="yes"/>
			<point x="272" y="-234"/>
			<point x="374" y="-180"/>
			<point x="374" y="-78" type="curve" smooth="yes"/>
			<point x="374" y="-14"/>
			<point x="330" y="16"/>
			<point x="220" y="28" type="curve" smooth="yes"/>
			<point x="144" y="36"/>
			<point x="116" y="54"/>
			<point x="116" y="94" type="curve" smooth="yes"/>
			<point x="116" y="122"/>
			<point x="138" y="148"/>
			<point x="158" y="164" type="curve"/>
			<point x="174" y="156"/>
			<point x="190" y="152"/>
			<point x="210" y="152" type="curve" smooth="yes"/>
			<point x="322" y="152"/>
			<point x="402" y="244"/>
			<point x="402" y="362" type="curve" smooth="yes"/>
			<point x="402" y="392"/>
			<point x="388" y="428"/>
			<point x="366" y="452" type="curve"/>
			<point x="480" y="452" type="line"/>
			<point x="486" y="478" type="line"/>
			<point x="334" y="478" type="line"/>
			<point x="318" y="486"/>
			<point x="304" y="490"/>
			<point x="282" y="490" type="curve" smooth="yes"/>
			<point x="170" y="490"/>
			<point x="90" y="398"/>
			<point x="90" y="280" type="curve" smooth="yes"/>
			<point x="90" y="238"/>
			<point x="110" y="200"/>
			<point x="136" y="178" type="curve"/>
			<point x="136" y="174" type="line"/>
			<point x="104" y="146"/>
			<point x="88" y="116"/>
			<point x="88" y="88" type="curve" smooth="yes"/>
			<point x="88" y="64"/>
			<point x="100" y="38"/>
			<point x="122" y="26" type="curve"/>
			<point x="122" y="24" type="line"/>
			<point x="70" y="-2"/>
			<point x="-6" y="-48"/>
			<point x="-6" y="-118" type="curve" smooth="yes"/>
			<point x="-6" y="-196"/>
			<point x="74" y="-234"/>
		</contour>
		<contour>
			<point x="214" y="178" type="curve" smooth="yes"/>
			<point x="154" y="178"/>
			<point x="118" y="224"/>
			<point x="118" y="290" type="curve" smooth="yes"/>
			<point x="118" y="380"/>
			<point x="188" y="464"/>
			<point x="278" y="464" type="curve" smooth="yes"/>
			<point x="338" y="464"/>
			<point x="374" y="418"/>
			<point x="374" y="352" type="curve" smooth="yes"/>
			<point x="374" y="262"/>
			<point x="304" y="178"/>
		</contour>
		<contour>
			<point x="158" y="-208" type="curve" smooth="yes"/>
			<point x="88" y="-208"/>
			<point x="22" y="-180"/>
			<point x="22" y="-112" type="curve" smooth="yes"/>
			<point x="22" y="-60"/>
			<point x="92" y="-12"/>
			<point x="144" y="10" type="curve"/>
			<point x="164" y="6"/>
			<point x="186" y="2"/>
			<point x="204" y="0" type="curve" smooth="yes"/>
			<point x="306" y="-10"/>
			<point x="346" y="-34"/>
			<point x="346" y="-84" type="curve" smooth="yes"/>
			<point x="346" y="-152"/>
			<point x="264" y="-208"/>
		</contour>
	</outline>
	<anchor name="aboveLC" x="276" y="502"/>
	<anchor name="belowLC" x="158" y="-222"/>
</glyph>
<glyph name="ka.d" format="2">
	<advance width="436"/>
	<outline>
		<contour>
			<point x="44" y="0" type="line"/>
			<point x="72" y="0" type="line"/>
			<point x="120" y="238" type="line"/>
			<point x="248" y="238" type="line"/>
			<point x="344" y="0" type="line"/>
			<point x="374" y="0" type="line"/>
			<point x="272" y="250" type="line"/>
			<point x="442" y="478" type="line"/>
			<point x="408" y="478" type="line"/>
			<point x="250" y="264" type="line"/>
			<point x="126" y="264" type="line"/>
			<point x="216" y="722" type="line"/>
			<point x="188" y="722" type="line"/>
		</contour>
	</outline>
</glyph>
<glyph name="kabashkir.a" format="2">
	<advance width="544"/>
	<outline>
		<contour>
			<point x="265" y="478" type="line"/>
			<point x="66" y="478" type="line"/>
			<point x="60" y="452" type="line"/>
			<point x="253" y="452" type="line"/>
		</contour>
		<component base="ka.a" xOffset="108"/>
	</outline>
</glyph>
<glyph name="macronacute.cap" format="2">
	<outline>
		<contour>
			<point x="30" y="748" type="line"/>
			<point x="260" y="748" type="line"/>
			<point x="266" y="774" type="line"/>
			<point x="36" y="774" type="line"/>
		</contour>
		<contour>
			<point x="110" y="820" type="line"/>
			<point x="136" y="820" type="line"/>
			<point x="260" y="916" type="line"/>
			<point x="258" y="920" type="line"/>
			<point x="220" y="920" type="line"/>
		</contour>
	</outline>
	<anchor name="_aboveUC" x="130" y="682"/>
</glyph>
<glyph name="macrongrave" format="2">
	<outline>
		<contour>
			<point x="4" y="610" type="line"/>
			<point x="236" y="610" type="line"/>
			<point x="240" y="636" type="line"/>
			<point x="8" y="636" type="line"/>
		</contour>
		<contour>
			<point x="156" y="700" type="line"/>
			<point x="180" y="700" type="line"/>
			<point x="104" y="800" type="line"/>
			<point x="72" y="800" type="line"/>
			<point x="70" y="796" type="line"/>
		</contour>
	</outline>
	<anchor name="_aboveLC" x="100" y="502"/>
</glyph>
<glyph name="nine.tnum" format="2">
	<advance width="456"/>
	<outline>
		<contour>
			<point x="132" y="-82" type="curve" smooth="yes"/>
			<point x="292" y="-82"/>
			<point x="414" y="114"/>
			<point x="414" y="374" type="curve" smooth="yes"/>
			<point x="414" y="494"/>
			<point x="354" y="582"/>
			<point x="254" y="582" type="curve" smooth="yes"/>
			<point x="142" y="582"/>
			<point x="52" y="480"/>
			<point x="52" y="348" type="curve" smooth="yes"/>
			<point x="52" y="244"/>
			<point x="116" y="172"/>
			<point x="210" y="172" type="curve" smooth="yes"/>
			<point x="264" y="172"/>
			<point x="332" y="200"/>
			<point x="386" y="262" type="curve"/>
			<point x="388" y="300" type="line"/>
			<point x="324" y="220"/>
			<point x="250" y="200"/>
			<point x="212" y="200" type="curve" smooth="yes"/>
			<point x="128" y="200"/>
			<point x="80" y="262"/>
			<point x="80" y="358" type="curve" smooth="yes"/>
			<point x="80" y="464"/>
			<point x="164" y="556"/>
			<point x="252" y="556" type="curve" smooth="yes"/>
			<point x="336" y="556"/>
			<point x="386" y="476"/>
			<point x="386" y="368" type="curve" smooth="yes"/>
			<point x="386" y="136"/>
			<point x="272" y="-56"/>
			<point x="134" y="-56" type="curve" smooth="yes"/>
			<point x="88" y="-56"/>
			<point x="56" y="-34"/>
			<point x="32" y="10" type="curve"/>
			<point x="8" y="-6" type="line"/>
			<point x="34" y="-52"/>
			<point x="72" y="-82"/>
		</contour>
	</outline>
</glyph>
<glyph name="seven.pnum" format="2">
	<advance width="436"/>
	<outline>
		<contour>
			<point x="120" y="0" type="curve"/>
			<point x="152" y="0" type="line"/>
			<point x="202" y="244"/>
			<point x="270" y="426"/>
			<point x="468" y="620" type="curve"/>
			<point x="472" y="640" type="line"/>
			<point x="110" y="640" type="line"/>
			<point x="104" y="614" type="line"/>
			<point x="430" y="614" type="line"/>
			<point x="250" y="432"/>
			<point x="176" y="254"/>
		</contour>
	</outline>
</glyph>
<glyph name="their" format="2">
	<advance width="935"/>
	<outline>
		<contour>
			<point x="576" y="252" type="line"/>
			<point x="681" y="208"/>
			<point x="713" y="198"/>
			<point x="790" y="198" type="curve" smooth="yes"/>
			<point x="879" y="198"/>
			<point x="949" y="262"/>
			<point x="965" y="344" type="curve" smooth="yes"/>
			<point x="972" y="378"/>
			<point x="969" y="402"/>
			<point x="959" y="428" type="curve"/>
			<point x="931" y="414" type="line"/>
			<point x="938" y="390"/>
			<point x="938" y="370"/>
			<point x="932" y="342" type="curve" smooth="yes"/>
			<point x="919" y="276"/>
			<point x="860" y="228"/>
			<point x="798" y="228" type="curve" smooth="yes"/>
			<point x="729" y="228"/>
			<point x="691" y="238"/>
			<point x="621" y="264" type="curve"/>
		</contour>
		<component base="they"/>
	</outline>
</glyph>
<glyph name="they" format="2">
	<advance width="789"/>
	<outline>
		<contour>
			<point x="286" y="-12" type="curve" smooth="yes"/>
			<point x="374" y="-12"/>
			<point x="439" y="56"/>
			<point x="476" y="238" type="curve" smooth="yes"/>
			<point x="489" y="306"/>
			<point x="494" y="391"/>
			<point x="503" y="482" type="curve"/>
			<point x="494" y="484"/>
			<point x="489" y="484"/>
			<point x="483" y="484" type="curve" smooth="yes"/>
			<point x="277" y="484"/>
			<point x="77" y="302"/>
			<point x="77" y="81" type="curve" smooth="yes"/>
			<point x="77" y="47"/>
			<point x="83" y="20"/>
			<point x="91" y="-8" type="curve"/>
			<point x="120" y="4" type="line"/>
			<point x="113" y="28"/>
			<point x="109" y="51"/>
			<point x="109" y="78" type="curve" smooth="yes"/>
			<point x="109" y="284"/>
			<point x="293" y="456"/>
			<point x="471" y="456" type="curve"/>
			<point x="465" y="377"/>
			<point x="456" y="294"/>
			<point x="444" y="234" type="curve" smooth="yes"/>
			<point x="413" y="80"/>
			<point x="361" y="18"/>
			<point x="294" y="18" type="curve" smooth="yes"/>
			<point x="266" y="18"/>
			<point x="246" y="33"/>
			<point x="246" y="61" type="curve" smooth="yes"/>
			<point x="246" y="144"/>
			<point x="341" y="196"/>
			<point x="465" y="224" type="curve" smooth="yes"/>
			<point x="774" y="294"/>
			<point x="840" y="336"/>
			<point x="840" y="428" type="curve" smooth="yes"/>
			<point x="840" y="463"/>
			<point x="817" y="490"/>
			<point x="772" y="490" type="curve" smooth="yes"/>
			<point x="671" y="490"/>
			<point x="567" y="330"/>
			<point x="567" y="134" type="curve" smooth="yes"/>
			<point x="567" y="38"/>
			<point x="604" y="-12"/>
			<point x="681" y="-12" type="curve" smooth="yes"/>
			<point x="722" y="-12"/>
			<point x="751" y="6"/>
			<point x="777" y="28" type="curve"/>
			<point x="766" y="48" type="line"/>
			<point x="736" y="28"/>
			<point x="721" y="18"/>
			<point x="689" y="18" type="curve" smooth="yes"/>
			<point x="630" y="18"/>
			<point x="601" y="61"/>
			<point x="601" y="142" type="curve" smooth="yes"/>
			<point x="601" y="305"/>
			<point x="690" y="460"/>
			<point x="764" y="460" type="curve" smooth="yes"/>
			<point x="791" y="460"/>
			<point x="806" y="444"/>
			<point x="806" y="420" type="curve" smooth="yes"/>
			<point x="806" y="373"/>
			<point x="771" y="316"/>
			<point x="595" y="281" type="curve" smooth="yes"/>
			<point x="314" y="225"/>
			<point x="212" y="165"/>
			<point x="212" y="54" type="curve" smooth="yes"/>
			<point x="212" y="12"/>
			<point x="241" y="-12"/>
		</contour>
	</outline>
</glyph>
<glyph name="two.dnom" format="2">
	<advance width="344"/>
	<outline>
		<contour>
			<point x="6" y="0" type="line"/>
			<point x="248" y="0" type="line"/>
			<point x="252" y="24" type="line"/>
			<point x="52" y="24" type="line"/>
			<point x="214" y="142"/>
			<point x="288" y="212"/>
			<point x="288" y="304" type="curve" smooth="yes"/>
			<point x="288" y="364"/>
			<point x="248" y="402"/>
			<point x="184" y="402" type="curve" smooth="yes"/>
			<point x="138" y="402"/>
			<point x="98" y="372"/>
			<point x="68" y="340" type="curve"/>
			<point x="86" y="322" type="line"/>
			<point x="114" y="354"/>
			<point x="148" y="378"/>
			<point x="182" y="378" type="curve" smooth="yes"/>
			<point x="235" y="378"/>
			<point x="260" y="350"/>
			<point x="260" y="302" type="curve" smooth="yes"/>
			<point x="260" y="218"/>
			<point x="193" y="158"/>
			<point x="10" y="24" type="curve"/>
		</contour>
	</outline>
</glyph>
<glyph name="zero.0p" format="2">
	<advance width="474"/>
	<outline>
		<contour>
			<point x="243" y="270" type="curve" smooth="yes"/>
			<point x="276" y="270"/>
			<point x="303" y="303"/>
			<point x="303" y="336" type="curve" smooth="yes"/>
			<point x="303" y="363"/>
			<point x="291" y="384"/>
			<point x="264" y="384" type="curve" smooth="yes"/>
			<point x="231" y="384"/>
			<point x="201" y="348"/>
			<point x="201" y="315" type="curve" smooth="yes"/>
			<point x="201" y="291"/>
			<point x="216" y="270"/>
		</contour>
		<component base="zero.pnum"/>
	</outline>
</glyph>
